<?xml version="1.0" encoding="UTF-8"?>
<svg width="161px" height="46px" viewBox="0 0 161 46" version="1.1" xmlns="http://www.w3.org/2000/svg" xmlns:xlink="http://www.w3.org/1999/xlink">
    <title>elleva</title>
    <g id="Page-1" stroke="none" stroke-width="1" fill="none" fill-rule="evenodd">
        <g id="Artboard" transform="translate(-629.000000, -5949.000000)" fill="#FFFFFF" fill-rule="nonzero">
            <g id="elleva" transform="translate(629.000000, 5949.000000)">
                <path d="M144.946392,13 C137.985745,13.0468161 131.848421,17.5590876 129.748821,24.1735277 C127.649221,30.7879679 130.065775,37.9973648 135.732821,42.0258215 C141.399868,46.0542781 149.026074,45.9838428 154.61724,41.8514056 C154.61724,43.5903263 156.031637,45 157.776384,45 C159.521131,45 160.935528,43.5903263 160.935528,41.8514056 L160.935528,28.935743 L161,28.935743 C160.964494,20.1242913 153.787438,13 144.946392,13 Z M144.946392,38.7028112 C139.569722,38.7028112 135.211071,34.3587147 135.211071,29 C135.211071,23.6412853 139.569722,19.2971888 144.946392,19.2971888 C150.323061,19.2971888 154.681712,23.6412853 154.681712,29 C154.681712,34.3337207 150.362338,38.6674886 145.010864,38.7028112 L144.946392,38.7028112 Z" id="Shape"></path>
                <rect id="Rectangle" x="49" y="0" width="6" height="45" rx="3"></rect>
                <path d="M125.092472,13.3325468 C124.283154,12.952002 123.34888,12.8956465 122.496076,13.175932 C121.643272,13.4562175 120.942134,14.050073 120.547577,14.8262872 L110.033266,35.3489815 L99.4511216,14.8262872 C98.6269174,13.2122155 96.5920984,12.5434452 94.9062262,13.3325469 C93.220354,14.1216487 92.521834,16.0698058 93.3460382,17.6838776 L106.709388,43.6619715 C107.064853,44.9290974 108.196139,45.8574736 109.558426,46 L110.508106,46 C111.84455,45.8326127 112.94311,44.9091043 113.289311,43.6619715 L126.65266,17.6838776 C127.050133,16.9090283 127.108996,16.0145444 126.816242,15.1980606 C126.523488,14.3815768 125.903215,13.7102997 125.092472,13.3325468 Z" id="Path"></path>
                <path d="M91.8144263,23.5423085 C92.104876,24.3392299 92.0526939,25.2167787 91.6697327,25.9756307 C91.2867714,26.7344827 90.6055381,27.3102237 89.7807664,27.5720813 L68.6569443,34.9280159 C71.2819145,38.1812247 75.7410869,39.4418529 79.7436708,38.0622837 C82.2041825,37.2560234 84.3549227,35.7389995 85.9102524,33.7126876 C87.0254853,32.3054653 89.190349,32.4973593 90.4367858,33.7126876 C91.6832225,34.9280159 91.4864167,36.7829907 90.3711838,38.190213 C87.287893,42.2199859 84.1390003,43.2434202 81.8429326,44.0749607 C73.3286602,47.0247401 63.9740013,42.6860909 60.9487173,34.3843164 C57.9234332,26.0825419 62.3731375,16.9613553 70.88741,14.0115758 C78.3660302,11.3250606 88.271922,13.8196819 91.8144263,23.5423085 Z M66.4264786,28.9793036 L84.2046022,22.8386973 C81.3837191,19.0647831 76.7259819,18.5530659 73.0522738,19.8323588 C69.1096478,21.2319343 66.4873493,24.888232 66.4920805,28.9793036 L66.4264786,28.9793036 Z" id="Shape"></path>
                <path d="M31.8147824,23.6466281 C32.1046748,24.4445851 32.0525928,25.3232743 31.6703663,26.0831125 C31.2881398,26.8429506 30.6082135,27.4194398 29.7850241,27.6816377 L8.63625306,34.9830836 C11.2729835,38.2173129 15.7206651,39.4530032 19.7017091,38.0573767 C22.1575002,37.2500686 24.3041141,35.7310733 25.8564599,33.7021282 C26.9695531,32.2930772 29.1302634,32.4852205 30.3743088,33.7021282 C31.6183541,34.9190359 31.4219259,36.7764212 30.3088327,38.1854722 C27.2314574,42.2204818 24.0886059,43.2452462 21.7969434,44.0778672 C16.2997418,45.9885197 10.1780656,44.8852879 5.73789108,41.1837484 C1.29771657,37.482209 -0.786388134,31.7447139 0.270639067,26.132522 C1.32766627,20.5203301 5.36523779,15.8860669 10.8624395,13.9754145 C18.3267116,11.3494559 28.2135984,13.847319 31.8147824,23.6466281 Z M6.4755427,29.0266409 L24.2195581,22.8780548 C21.404087,19.0992363 16.7552859,18.5868541 13.0886259,19.8678095 C9.12774856,21.2477907 6.48076329,24.9137496 6.4755427,29.0266409 L6.4755427,29.0266409 Z" id="Shape"></path>
                <rect id="Rectangle" x="38" y="0" width="6" height="45" rx="3"></rect>
            </g>
        </g>
    </g>
</svg>