<?xml version="1.0" encoding="UTF-8"?>
<svg width="360px" height="600px" viewBox="0 0 360 600" version="1.1" xmlns="http://www.w3.org/2000/svg" xmlns:xlink="http://www.w3.org/1999/xlink">
    <title>Artboard</title>
    <g id="Artboard" stroke="none" stroke-width="1" fill="none" fill-rule="evenodd">
        <rect fill="#2C2C2F" x="0" y="0" width="360" height="600"></rect>
        <rect id="Rectangle" fill="#6592CF" x="0" y="0" width="360" height="300"></rect>
        <rect id="Rectangle" fill="#243D83" x="48" y="85" width="264" height="130"></rect>
        <circle id="Oval" fill="#6592CF" cx="40" cy="332" r="12"></circle>
        <path d="M60.938,336.493 C61.0246667,336.493 61.094,336.467 61.146,336.415 C61.198,336.363 61.2326667,336.298 61.25,336.22 L61.25,336.22 L61.432,334.959 L62.758,334.959 L62.576,336.207 C62.5673333,336.285 62.5911667,336.352167 62.6475,336.4085 C62.7038333,336.464833 62.771,336.493 62.849,336.493 L62.849,336.493 L63.889,336.493 C63.9756667,336.493 64.045,336.467 64.097,336.415 C64.149,336.363 64.1836667,336.298 64.201,336.22 L64.201,336.22 L64.383,334.959 L65.696,334.959 C65.7826667,334.959 65.8563333,334.928667 65.917,334.868 C65.9776667,334.807333 66.008,334.733667 66.008,334.647 L66.008,334.647 L66.008,333.62 C66.008,333.533333 65.9776667,333.461833 65.917,333.4055 C65.8563333,333.349167 65.7826667,333.321 65.696,333.321 L65.696,333.321 L64.63,333.321 L64.877,331.657 L66.034,331.657 C66.1206667,331.657 66.1943333,331.626667 66.255,331.566 C66.3156667,331.505333 66.346,331.431667 66.346,331.345 L66.346,331.345 L66.346,330.318 C66.346,330.231333 66.3156667,330.159833 66.255,330.1035 C66.1943333,330.047167 66.1206667,330.019 66.034,330.019 L66.034,330.019 L65.111,330.019 L65.306,328.771 C65.306,328.693 65.28,328.625833 65.228,328.5695 C65.176,328.513167 65.111,328.485 65.033,328.485 L65.033,328.485 L63.993,328.485 C63.915,328.485 63.85,328.511 63.798,328.563 C63.746,328.615 63.7113333,328.68 63.694,328.758 L63.694,328.758 L63.499,330.019 L62.16,330.019 L62.355,328.771 C62.355,328.693 62.329,328.625833 62.277,328.5695 C62.225,328.513167 62.16,328.485 62.082,328.485 L62.082,328.485 L61.042,328.485 C60.964,328.485 60.899,328.511 60.847,328.563 C60.795,328.615 60.7603333,328.68 60.743,328.758 L60.743,328.758 L60.548,330.019 L59.222,330.019 C59.1353333,330.019 59.0638333,330.047167 59.0075,330.1035 C58.9511667,330.159833 58.923,330.231333 58.923,330.318 L58.923,330.318 L58.923,331.345 C58.923,331.431667 58.9511667,331.505333 59.0075,331.566 C59.0638333,331.626667 59.1353333,331.657 59.222,331.657 L59.222,331.657 L60.301,331.657 L60.054,333.321 L58.884,333.321 C58.7973333,333.321 58.7258333,333.349167 58.6695,333.4055 C58.6131667,333.461833 58.585,333.533333 58.585,333.62 L58.585,333.62 L58.585,334.647 C58.585,334.733667 58.6131667,334.807333 58.6695,334.868 C58.7258333,334.928667 58.7973333,334.959 58.884,334.959 L58.884,334.959 L59.807,334.959 L59.625,336.207 C59.6163333,336.285 59.6401667,336.352167 59.6965,336.4085 C59.7528333,336.464833 59.82,336.493 59.898,336.493 L59.898,336.493 L60.938,336.493 Z M63.005,333.321 L61.679,333.321 L61.926,331.657 L63.252,331.657 L63.005,333.321 Z M71.221,337.13 C71.9663333,337.13 72.6271667,336.982667 73.2035,336.688 C73.7798333,336.393333 74.224,335.994667 74.536,335.492 C74.848,334.989333 75.004,334.434667 75.004,333.828 C75.004,333.238667 74.848,332.71 74.536,332.242 C74.224,331.774 73.8188333,331.407833 73.3205,331.1435 C72.8221667,330.879167 72.3086667,330.734 71.78,330.708 C71.624,330.708 71.494,330.721 71.39,330.747 L71.39,330.747 L73.145,328.355 C73.1796667,328.303 73.197,328.246667 73.197,328.186 C73.197,328.108 73.171,328.040833 73.119,327.9845 C73.067,327.928167 73.002,327.9 72.924,327.9 L72.924,327.9 L71.195,327.9 C71.0823333,327.9 70.9935,327.923833 70.9285,327.9715 C70.8635,328.019167 70.7963333,328.082 70.727,328.16 L70.727,328.16 L68.439,331.241 C67.711,332.229 67.347,333.108667 67.347,333.88 C67.347,334.512667 67.5095,335.076 67.8345,335.57 C68.1595,336.064 68.6145,336.4475 69.1995,336.7205 C69.7845,336.9935 70.4583333,337.13 71.221,337.13 Z M71.195,335.258 C70.7876667,335.258 70.4453333,335.1345 70.168,334.8875 C69.8906667,334.6405 69.752,334.300333 69.752,333.867 C69.752,333.433667 69.8906667,333.095667 70.168,332.853 C70.4453333,332.610333 70.7876667,332.489 71.195,332.489 C71.6023333,332.489 71.9425,332.610333 72.2155,332.853 C72.4885,333.095667 72.625,333.433667 72.625,333.867 C72.625,334.300333 72.4863333,334.6405 72.209,334.8875 C71.9316667,335.1345 71.5936667,335.258 71.195,335.258 Z M79.541,337.143 C80.3123333,337.143 80.9818333,337.008667 81.5495,336.74 C82.1171667,336.471333 82.5526667,336.0965 82.856,335.6155 C83.1593333,335.1345 83.311,334.586333 83.311,333.971 C83.311,333.390333 83.1658333,332.874667 82.8755,332.424 C82.5851667,331.973333 82.1973333,331.6245 81.712,331.3775 C81.2266667,331.1305 80.711,331.007 80.165,331.007 C79.749,331.007 79.411,331.043833 79.151,331.1175 C78.891,331.191167 78.6526667,331.301667 78.436,331.449 L78.436,331.449 L78.605,329.772 L82.375,329.772 C82.4703333,329.772 82.5505,329.741667 82.6155,329.681 C82.6805,329.620333 82.713,329.542333 82.713,329.447 L82.713,329.447 L82.713,328.225 C82.713,328.129667 82.6805,328.051667 82.6155,327.991 C82.5505,327.930333 82.4703333,327.9 82.375,327.9 L82.375,327.9 L77.162,327.9 C77.0493333,327.9 76.9518333,327.934667 76.8695,328.004 C76.7871667,328.073333 76.7416667,328.168667 76.733,328.29 L76.733,328.29 L76.265,332.827 C76.265,332.905 76.2931667,332.972167 76.3495,333.0285 C76.4058333,333.084833 76.473,333.113 76.551,333.113 L76.551,333.113 L78.254,333.113 C78.3406667,333.113 78.4576667,333.056667 78.605,332.944 C78.7436667,332.84 78.8801667,332.759833 79.0145,332.7035 C79.1488333,332.647167 79.3286667,332.619 79.554,332.619 C79.9526667,332.619 80.2798333,332.740333 80.5355,332.983 C80.7911667,333.225667 80.919,333.537667 80.919,333.919 C80.919,334.343667 80.7868333,334.675167 80.5225,334.9135 C80.2581667,335.151833 79.9353333,335.271 79.554,335.271 C78.9126667,335.271 78.475,334.980667 78.241,334.4 C78.163,334.235333 78.0243333,334.153 77.825,334.153 L77.825,334.153 L76.083,334.153 C76.005,334.153 75.94,334.179 75.888,334.231 C75.836,334.283 75.81,334.348 75.81,334.426 C75.8273333,334.911333 75.9811667,335.362 76.2715,335.778 C76.5618333,336.194 76.9843333,336.5255 77.539,336.7725 C78.0936667,337.0195 78.761,337.143 79.541,337.143 Z M87.77,337 C87.9606667,337 88.1166667,336.913333 88.238,336.74 L88.238,336.74 L90.318,333.893 C90.4393333,333.719667 90.5086667,333.624333 90.526,333.607 C90.9073333,333.078333 91.1955,332.619 91.3905,332.229 C91.5855,331.839 91.683,331.405667 91.683,330.929 C91.683,330.339667 91.5356667,329.8045 91.241,329.3235 C90.9463333,328.8425 90.5108333,328.463333 89.9345,328.186 C89.3581667,327.908667 88.6713333,327.77 87.874,327.77 C87.0853333,327.77 86.4115,327.921667 85.8525,328.225 C85.2935,328.528333 84.871,328.927 84.585,329.421 C84.299,329.915 84.156,330.448 84.156,331.02 C84.156,331.600667 84.3033333,332.116333 84.598,332.567 C84.8926667,333.017667 85.2783333,333.373 85.755,333.633 C86.2316667,333.893 86.7386667,334.040333 87.276,334.075 C87.4146667,334.075 87.5403333,334.062 87.653,334.036 L87.653,334.036 L85.82,336.545 C85.7853333,336.597 85.768,336.653333 85.768,336.714 C85.768,336.792 85.794,336.859167 85.846,336.9155 C85.898,336.971833 85.963,337 86.041,337 L86.041,337 L87.77,337 Z M87.9,332.359 C87.51,332.359 87.185,332.237667 86.925,331.995 C86.665,331.752333 86.535,331.423 86.535,331.007 C86.535,330.591 86.6628333,330.2595 86.9185,330.0125 C87.1741667,329.7655 87.5013333,329.642 87.9,329.642 C88.2986667,329.642 88.628,329.7655 88.888,330.0125 C89.148,330.2595 89.278,330.591 89.278,331.007 C89.278,331.423 89.148,331.752333 88.888,331.995 C88.628,332.237667 88.2986667,332.359 87.9,332.359 Z M99.652,337 C99.7473333,337 99.8275,336.969667 99.8925,336.909 C99.9575,336.848333 99.99,336.770333 99.99,336.675 L99.99,336.675 L99.99,335.362 C99.99,335.266667 99.9575,335.188667 99.8925,335.128 C99.8275,335.067333 99.7473333,335.037 99.652,335.037 L99.652,335.037 L96.311,335.037 L97.507,333.828 C98.2783333,333.247333 98.8525,332.707833 99.2295,332.2095 C99.6065,331.711167 99.795,331.158667 99.795,330.552 C99.795,329.988667 99.6606667,329.494667 99.392,329.07 C99.1233333,328.645333 98.729,328.316 98.209,328.082 C97.689,327.848 97.065,327.731 96.337,327.731 C95.6436667,327.731 95.0305,327.8675 94.4975,328.1405 C93.9645,328.4135 93.5528333,328.781833 93.2625,329.2455 C92.9721667,329.709167 92.8183333,330.218333 92.801,330.773 C92.801,330.851 92.827,330.916 92.879,330.968 C92.931,331.02 92.996,331.046 93.074,331.046 L93.074,331.046 L94.699,331.046 C94.9416667,331.046 95.089,330.946333 95.141,330.747 C95.2016667,330.426333 95.3273333,330.159833 95.518,329.9475 C95.7086667,329.735167 95.9816667,329.629 96.337,329.629 C97.013,329.629 97.351,329.971333 97.351,330.656 C97.351,330.907333 97.247,331.171667 97.039,331.449 C96.831,331.726333 96.5233333,332.034 96.116,332.372 C95.7086667,332.71 95.1106667,333.182333 94.322,333.789 L94.322,333.789 L92.97,335.115 C92.7533333,335.279667 92.645,335.492 92.645,335.752 L92.645,335.752 L92.645,336.675 C92.645,336.770333 92.6775,336.848333 92.7425,336.909 C92.8075,336.969667 92.8876667,337 92.983,337 L92.983,337 L99.652,337 Z M105.203,337.13 C105.965667,337.13 106.650333,337.002167 107.257,336.7465 C107.863667,336.490833 108.3425,336.126833 108.6935,335.6545 C109.0445,335.182167 109.224333,334.629667 109.233,333.997 C109.241667,333.919 109.217833,333.854 109.1615,333.802 C109.105167,333.75 109.038,333.724 108.96,333.724 L108.96,333.724 L107.205,333.724 C107.083667,333.724 106.992667,333.747833 106.932,333.7955 C106.871333,333.843167 106.823667,333.932 106.789,334.062 C106.685,334.486667 106.498667,334.792167 106.23,334.9785 C105.961333,335.164833 105.614667,335.258 105.19,335.258 C104.167333,335.258 103.638667,334.686 103.604,333.542 C103.595333,333.290667 103.591,332.922333 103.591,332.437 L103.591265,332.236694 C103.592327,331.851469 103.596571,331.558571 103.604,331.358 C103.638667,330.214 104.167333,329.642 105.19,329.642 C105.614667,329.642 105.957,329.730833 106.217,329.9085 C106.477,330.086167 106.667667,330.396 106.789,330.838 C106.832333,330.968 106.884333,331.056833 106.945,331.1045 C107.005667,331.152167 107.092333,331.176 107.205,331.176 L107.205,331.176 L108.96,331.176 C109.029333,331.176 109.092167,331.152167 109.1485,331.1045 C109.204833,331.056833 109.233,330.998333 109.233,330.929 L109.233,330.929 L109.233,330.903 C109.224333,330.270333 109.0445,329.717833 108.6935,329.2455 C108.3425,328.773167 107.863667,328.409167 107.257,328.1535 C106.650333,327.897833 105.965667,327.77 105.203,327.77 C103.989667,327.77 103.027667,328.0755 102.317,328.6865 C101.606333,329.2975 101.229333,330.166333 101.186,331.293 C101.177333,331.535667 101.173,331.925667 101.173,332.463 L101.173265,332.680551 C101.174327,333.097612 101.178571,333.406429 101.186,333.607 C101.229333,334.751 101.599833,335.624167 102.2975,336.2265 C102.995167,336.828833 103.963667,337.13 105.203,337.13 Z M112.561,337 C112.656333,337 112.734333,336.969667 112.795,336.909 C112.855667,336.848333 112.886,336.770333 112.886,336.675 L112.886,336.675 L112.886,333.737 L116.643,333.737 C116.738333,333.737 116.816333,333.7045 116.877,333.6395 C116.937667,333.5745 116.968,333.498667 116.968,333.412 L116.968,333.412 L116.968,332.112 C116.968,332.016667 116.937667,331.9365 116.877,331.8715 C116.816333,331.8065 116.738333,331.774 116.643,331.774 L116.643,331.774 L112.886,331.774 L112.886,329.863 L116.903,329.863 C116.998333,329.863 117.076333,329.8305 117.137,329.7655 C117.197667,329.7005 117.228,329.624667 117.228,329.538 L117.228,329.538 L117.228,328.225 C117.228,328.129667 117.197667,328.051667 117.137,327.991 C117.076333,327.930333 116.998333,327.9 116.903,327.9 L116.903,327.9 L110.923,327.9 C110.836333,327.9 110.7605,327.930333 110.6955,327.991 C110.6305,328.051667 110.598,328.129667 110.598,328.225 L110.598,328.225 L110.598,336.675 C110.598,336.761667 110.6305,336.8375 110.6955,336.9025 C110.7605,336.9675 110.836333,337 110.923,337 L110.923,337 L112.561,337 Z" id="#6592CF" fill="#FFFFFF" fill-rule="nonzero"></path>
        <circle id="Oval" fill="#243D83" cx="147" cy="332" r="12"></circle>
        <path d="M167.938,336.493 C168.024667,336.493 168.094,336.467 168.146,336.415 C168.198,336.363 168.232667,336.298 168.25,336.22 L168.25,336.22 L168.432,334.959 L169.758,334.959 L169.576,336.207 C169.567333,336.285 169.591167,336.352167 169.6475,336.4085 C169.703833,336.464833 169.771,336.493 169.849,336.493 L169.849,336.493 L170.889,336.493 C170.975667,336.493 171.045,336.467 171.097,336.415 C171.149,336.363 171.183667,336.298 171.201,336.22 L171.201,336.22 L171.383,334.959 L172.696,334.959 C172.782667,334.959 172.856333,334.928667 172.917,334.868 C172.977667,334.807333 173.008,334.733667 173.008,334.647 L173.008,334.647 L173.008,333.62 C173.008,333.533333 172.977667,333.461833 172.917,333.4055 C172.856333,333.349167 172.782667,333.321 172.696,333.321 L172.696,333.321 L171.63,333.321 L171.877,331.657 L173.034,331.657 C173.120667,331.657 173.194333,331.626667 173.255,331.566 C173.315667,331.505333 173.346,331.431667 173.346,331.345 L173.346,331.345 L173.346,330.318 C173.346,330.231333 173.315667,330.159833 173.255,330.1035 C173.194333,330.047167 173.120667,330.019 173.034,330.019 L173.034,330.019 L172.111,330.019 L172.306,328.771 C172.306,328.693 172.28,328.625833 172.228,328.5695 C172.176,328.513167 172.111,328.485 172.033,328.485 L172.033,328.485 L170.993,328.485 C170.915,328.485 170.85,328.511 170.798,328.563 C170.746,328.615 170.711333,328.68 170.694,328.758 L170.694,328.758 L170.499,330.019 L169.16,330.019 L169.355,328.771 C169.355,328.693 169.329,328.625833 169.277,328.5695 C169.225,328.513167 169.16,328.485 169.082,328.485 L169.082,328.485 L168.042,328.485 C167.964,328.485 167.899,328.511 167.847,328.563 C167.795,328.615 167.760333,328.68 167.743,328.758 L167.743,328.758 L167.548,330.019 L166.222,330.019 C166.135333,330.019 166.063833,330.047167 166.0075,330.1035 C165.951167,330.159833 165.923,330.231333 165.923,330.318 L165.923,330.318 L165.923,331.345 C165.923,331.431667 165.951167,331.505333 166.0075,331.566 C166.063833,331.626667 166.135333,331.657 166.222,331.657 L166.222,331.657 L167.301,331.657 L167.054,333.321 L165.884,333.321 C165.797333,333.321 165.725833,333.349167 165.6695,333.4055 C165.613167,333.461833 165.585,333.533333 165.585,333.62 L165.585,333.62 L165.585,334.647 C165.585,334.733667 165.613167,334.807333 165.6695,334.868 C165.725833,334.928667 165.797333,334.959 165.884,334.959 L165.884,334.959 L166.807,334.959 L166.625,336.207 C166.616333,336.285 166.640167,336.352167 166.6965,336.4085 C166.752833,336.464833 166.82,336.493 166.898,336.493 L166.898,336.493 L167.938,336.493 Z M170.005,333.321 L168.679,333.321 L168.926,331.657 L170.252,331.657 L170.005,333.321 Z M181.458,337 C181.553333,337 181.6335,336.969667 181.6985,336.909 C181.7635,336.848333 181.796,336.770333 181.796,336.675 L181.796,336.675 L181.796,335.362 C181.796,335.266667 181.7635,335.188667 181.6985,335.128 C181.6335,335.067333 181.553333,335.037 181.458,335.037 L181.458,335.037 L178.117,335.037 L179.313,333.828 C180.084333,333.247333 180.6585,332.707833 181.0355,332.2095 C181.4125,331.711167 181.601,331.158667 181.601,330.552 C181.601,329.988667 181.466667,329.494667 181.198,329.07 C180.929333,328.645333 180.535,328.316 180.015,328.082 C179.495,327.848 178.871,327.731 178.143,327.731 C177.449667,327.731 176.8365,327.8675 176.3035,328.1405 C175.7705,328.4135 175.358833,328.781833 175.0685,329.2455 C174.778167,329.709167 174.624333,330.218333 174.607,330.773 C174.607,330.851 174.633,330.916 174.685,330.968 C174.737,331.02 174.802,331.046 174.88,331.046 L174.88,331.046 L176.505,331.046 C176.747667,331.046 176.895,330.946333 176.947,330.747 C177.007667,330.426333 177.133333,330.159833 177.324,329.9475 C177.514667,329.735167 177.787667,329.629 178.143,329.629 C178.819,329.629 179.157,329.971333 179.157,330.656 C179.157,330.907333 179.053,331.171667 178.845,331.449 C178.637,331.726333 178.329333,332.034 177.922,332.372 C177.514667,332.71 176.916667,333.182333 176.128,333.789 L176.128,333.789 L174.776,335.115 C174.559333,335.279667 174.451,335.492 174.451,335.752 L174.451,335.752 L174.451,336.675 C174.451,336.770333 174.4835,336.848333 174.5485,336.909 C174.6135,336.969667 174.693667,337 174.789,337 L174.789,337 L181.458,337 Z M188.972,337 C189.067333,337 189.145333,336.9675 189.206,336.9025 C189.266667,336.8375 189.297,336.761667 189.297,336.675 L189.297,336.675 L189.297,335.206 L190.454,335.206 C190.549333,335.206 190.627333,335.175667 190.688,335.115 C190.748667,335.054333 190.779,334.976333 190.779,334.881 L190.779,334.881 L190.779,333.594 C190.779,333.507333 190.748667,333.4315 190.688,333.3665 C190.627333,333.3015 190.545,333.269 190.441,333.269 L190.441,333.269 L189.297,333.269 L189.297,328.225 C189.297,328.129667 189.266667,328.051667 189.206,327.991 C189.145333,327.930333 189.067333,327.9 188.972,327.9 L188.972,327.9 L187.074,327.9 C186.874667,327.9 186.714333,327.973667 186.593,328.121 L186.593,328.121 L182.81,333.243 C182.714667,333.381667 182.667,333.516 182.667,333.646 L182.667,333.646 L182.667,334.881 C182.667,334.976333 182.697333,335.054333 182.758,335.115 C182.818667,335.175667 182.896667,335.206 182.992,335.206 L182.992,335.206 L187.035,335.206 L187.035,336.675 C187.035,336.761667 187.0675,336.8375 187.1325,336.9025 C187.1975,336.9675 187.273333,337 187.36,337 L187.36,337 L188.972,337 Z M187.087,333.36 L184.903,333.36 L187.087,330.292 L187.087,333.36 Z M195.407,337.13 C196.135,337.13 196.789333,337.013 197.37,336.779 C197.950667,336.545 198.405667,336.211333 198.735,335.778 C199.064333,335.344667 199.229,334.837667 199.229,334.257 C199.229,333.459667 198.997167,332.8465 198.5335,332.4175 C198.069833,331.9885 197.439333,331.722 196.642,331.618 L196.642,331.618 L196.551,331.592 L198.527,329.759 C198.665667,329.637667 198.735,329.494667 198.735,329.33 L198.735,329.33 L198.735,328.225 C198.735,328.129667 198.7025,328.051667 198.6375,327.991 C198.5725,327.930333 198.492333,327.9 198.397,327.9 L198.397,327.9 L192.417,327.9 C192.330333,327.9 192.2545,327.930333 192.1895,327.991 C192.1245,328.051667 192.092,328.129667 192.092,328.225 L192.092,328.225 L192.092,329.447 C192.092,329.533667 192.1245,329.6095 192.1895,329.6745 C192.2545,329.7395 192.330333,329.772 192.417,329.772 L192.417,329.772 L196.031,329.772 L193.899,331.579 C193.760333,331.683 193.691,331.830333 193.691,332.021 L193.691,332.021 L193.691,332.749 C193.691,332.835667 193.7235,332.9115 193.7885,332.9765 C193.8535,333.0415 193.929333,333.074 194.016,333.074 L194.016,333.074 L195.459,333.074 C196.360333,333.074 196.811,333.420667 196.811,334.114 C196.811,334.469333 196.6875,334.748833 196.4405,334.9525 C196.1935,335.156167 195.849,335.258 195.407,335.258 C194.635667,335.258 194.163333,335.032667 193.99,334.582 C193.938,334.486667 193.881667,334.421667 193.821,334.387 C193.760333,334.352333 193.682333,334.335 193.587,334.335 L193.587,334.335 L191.884,334.335 C191.806,334.335 191.738833,334.361 191.6825,334.413 C191.626167,334.465 191.598,334.53 191.598,334.608 C191.615333,334.998 191.7605,335.385833 192.0335,335.7715 C192.3065,336.157167 192.726833,336.48 193.2945,336.74 C193.862167,337 194.566333,337.13 195.407,337.13 Z M204.429,337 C205.711667,337 206.688833,336.7075 207.3605,336.1225 C208.032167,335.5375 208.389667,334.642667 208.433,333.438 C208.441667,333.195333 208.446,332.866 208.446,332.45 C208.446,332.034 208.441667,331.700333 208.433,331.449 C208.398333,330.296333 208.03,329.416667 207.328,328.81 C206.626,328.203333 205.638,327.9 204.364,327.9 L204.364,327.9 L200.984,327.9 C200.897333,327.9 200.8215,327.930333 200.7565,327.991 C200.6915,328.051667 200.659,328.129667 200.659,328.225 L200.659,328.225 L200.659,336.675 C200.659,336.761667 200.6915,336.8375 200.7565,336.9025 C200.8215,336.9675 200.897333,337 200.984,337 L200.984,337 L204.429,337 Z M204.364,335.128 L202.999,335.128 L202.999,329.772 L204.299,329.772 C204.871,329.772 205.302167,329.910667 205.5925,330.188 C205.882833,330.465333 206.036667,330.894333 206.054,331.475 C206.071333,331.717667 206.08,332.038333 206.08,332.437 C206.08,332.835667 206.071333,333.160667 206.054,333.412 C206.036667,334.01 205.893667,334.4455 205.625,334.7185 C205.356333,334.9915 204.936,335.128 204.364,335.128 L204.364,335.128 Z M213.451,337.13 C214.274333,337.13 214.974167,337.004333 215.5505,336.753 C216.126833,336.501667 216.558,336.1615 216.844,335.7325 C217.13,335.3035 217.273,334.820333 217.273,334.283 C217.273,333.806333 217.158167,333.381667 216.9285,333.009 C216.698833,332.636333 216.389,332.354667 215.999,332.164 C216.605667,331.748 216.909,331.145667 216.909,330.357 C216.909,329.585667 216.6165,328.961667 216.0315,328.485 C215.4465,328.008333 214.586333,327.77 213.451,327.77 C212.679667,327.77 212.034,327.882667 211.514,328.108 C210.994,328.333333 210.606167,328.643167 210.3505,329.0375 C210.094833,329.431833 209.967,329.876 209.967,330.37 C209.967,330.76 210.047167,331.106667 210.2075,331.41 C210.367833,331.713333 210.599667,331.964667 210.903,332.164 C210.521667,332.372 210.216167,332.660167 209.9865,333.0285 C209.756833,333.396833 209.642,333.810667 209.642,334.27 C209.642,334.807333 209.782833,335.292667 210.0645,335.726 C210.346167,336.159333 210.773,336.501667 211.345,336.753 C211.917,337.004333 212.619,337.13 213.451,337.13 Z M213.451,331.514 C213.069667,331.514 212.757667,331.418667 212.515,331.228 C212.272333,331.037333 212.151,330.786 212.151,330.474 C212.151,330.162 212.272333,329.910667 212.515,329.72 C212.757667,329.529333 213.069667,329.434 213.451,329.434 C213.832333,329.434 214.144333,329.529333 214.387,329.72 C214.629667,329.910667 214.751,330.162 214.751,330.474 C214.751,330.777333 214.629667,331.024333 214.387,331.215 C214.144333,331.405667 213.832333,331.505333 213.451,331.514 Z M213.451,335.466 C213.026333,335.466 212.673167,335.357667 212.3915,335.141 C212.109833,334.924333 211.969,334.634 211.969,334.27 C211.969,333.906 212.109833,333.617833 212.3915,333.4055 C212.673167,333.193167 213.026333,333.087 213.451,333.087 C213.875667,333.087 214.226667,333.193167 214.504,333.4055 C214.781333,333.617833 214.92,333.906 214.92,334.27 C214.92,334.634 214.781333,334.924333 214.504,335.141 C214.226667,335.357667 213.875667,335.466 213.451,335.466 Z M222.083,337.13 C222.811,337.13 223.465333,337.013 224.046,336.779 C224.626667,336.545 225.081667,336.211333 225.411,335.778 C225.740333,335.344667 225.905,334.837667 225.905,334.257 C225.905,333.459667 225.673167,332.8465 225.2095,332.4175 C224.745833,331.9885 224.115333,331.722 223.318,331.618 L223.318,331.618 L223.227,331.592 L225.203,329.759 C225.341667,329.637667 225.411,329.494667 225.411,329.33 L225.411,329.33 L225.411,328.225 C225.411,328.129667 225.3785,328.051667 225.3135,327.991 C225.2485,327.930333 225.168333,327.9 225.073,327.9 L225.073,327.9 L219.093,327.9 C219.006333,327.9 218.9305,327.930333 218.8655,327.991 C218.8005,328.051667 218.768,328.129667 218.768,328.225 L218.768,328.225 L218.768,329.447 C218.768,329.533667 218.8005,329.6095 218.8655,329.6745 C218.9305,329.7395 219.006333,329.772 219.093,329.772 L219.093,329.772 L222.707,329.772 L220.575,331.579 C220.436333,331.683 220.367,331.830333 220.367,332.021 L220.367,332.021 L220.367,332.749 C220.367,332.835667 220.3995,332.9115 220.4645,332.9765 C220.5295,333.0415 220.605333,333.074 220.692,333.074 L220.692,333.074 L222.135,333.074 C223.036333,333.074 223.487,333.420667 223.487,334.114 C223.487,334.469333 223.3635,334.748833 223.1165,334.9525 C222.8695,335.156167 222.525,335.258 222.083,335.258 C221.311667,335.258 220.839333,335.032667 220.666,334.582 C220.614,334.486667 220.557667,334.421667 220.497,334.387 C220.436333,334.352333 220.358333,334.335 220.263,334.335 L220.263,334.335 L218.56,334.335 C218.482,334.335 218.414833,334.361 218.3585,334.413 C218.302167,334.465 218.274,334.53 218.274,334.608 C218.291333,334.998 218.4365,335.385833 218.7095,335.7715 C218.9825,336.157167 219.402833,336.48 219.9705,336.74 C220.538167,337 221.242333,337.13 222.083,337.13 Z" id="#243D83" fill="#FFFFFF" fill-rule="nonzero"></path>
        <circle id="Oval" fill="#FDC82F" cx="254" cy="332" r="12"></circle>
        <path d="M274.938,336.493 C275.024667,336.493 275.094,336.467 275.146,336.415 C275.198,336.363 275.232667,336.298 275.25,336.22 L275.25,336.22 L275.432,334.959 L276.758,334.959 L276.576,336.207 C276.567333,336.285 276.591167,336.352167 276.6475,336.4085 C276.703833,336.464833 276.771,336.493 276.849,336.493 L276.849,336.493 L277.889,336.493 C277.975667,336.493 278.045,336.467 278.097,336.415 C278.149,336.363 278.183667,336.298 278.201,336.22 L278.201,336.22 L278.383,334.959 L279.696,334.959 C279.782667,334.959 279.856333,334.928667 279.917,334.868 C279.977667,334.807333 280.008,334.733667 280.008,334.647 L280.008,334.647 L280.008,333.62 C280.008,333.533333 279.977667,333.461833 279.917,333.4055 C279.856333,333.349167 279.782667,333.321 279.696,333.321 L279.696,333.321 L278.63,333.321 L278.877,331.657 L280.034,331.657 C280.120667,331.657 280.194333,331.626667 280.255,331.566 C280.315667,331.505333 280.346,331.431667 280.346,331.345 L280.346,331.345 L280.346,330.318 C280.346,330.231333 280.315667,330.159833 280.255,330.1035 C280.194333,330.047167 280.120667,330.019 280.034,330.019 L280.034,330.019 L279.111,330.019 L279.306,328.771 C279.306,328.693 279.28,328.625833 279.228,328.5695 C279.176,328.513167 279.111,328.485 279.033,328.485 L279.033,328.485 L277.993,328.485 C277.915,328.485 277.85,328.511 277.798,328.563 C277.746,328.615 277.711333,328.68 277.694,328.758 L277.694,328.758 L277.499,330.019 L276.16,330.019 L276.355,328.771 C276.355,328.693 276.329,328.625833 276.277,328.5695 C276.225,328.513167 276.16,328.485 276.082,328.485 L276.082,328.485 L275.042,328.485 C274.964,328.485 274.899,328.511 274.847,328.563 C274.795,328.615 274.760333,328.68 274.743,328.758 L274.743,328.758 L274.548,330.019 L273.222,330.019 C273.135333,330.019 273.063833,330.047167 273.0075,330.1035 C272.951167,330.159833 272.923,330.231333 272.923,330.318 L272.923,330.318 L272.923,331.345 C272.923,331.431667 272.951167,331.505333 273.0075,331.566 C273.063833,331.626667 273.135333,331.657 273.222,331.657 L273.222,331.657 L274.301,331.657 L274.054,333.321 L272.884,333.321 C272.797333,333.321 272.725833,333.349167 272.6695,333.4055 C272.613167,333.461833 272.585,333.533333 272.585,333.62 L272.585,333.62 L272.585,334.647 C272.585,334.733667 272.613167,334.807333 272.6695,334.868 C272.725833,334.928667 272.797333,334.959 272.884,334.959 L272.884,334.959 L273.807,334.959 L273.625,336.207 C273.616333,336.285 273.640167,336.352167 273.6965,336.4085 C273.752833,336.464833 273.82,336.493 273.898,336.493 L273.898,336.493 L274.938,336.493 Z M277.005,333.321 L275.679,333.321 L275.926,331.657 L277.252,331.657 L277.005,333.321 Z M283.791,337 C283.886333,337 283.964333,336.969667 284.025,336.909 C284.085667,336.848333 284.116,336.770333 284.116,336.675 L284.116,336.675 L284.116,333.737 L287.873,333.737 C287.968333,333.737 288.046333,333.7045 288.107,333.6395 C288.167667,333.5745 288.198,333.498667 288.198,333.412 L288.198,333.412 L288.198,332.112 C288.198,332.016667 288.167667,331.9365 288.107,331.8715 C288.046333,331.8065 287.968333,331.774 287.873,331.774 L287.873,331.774 L284.116,331.774 L284.116,329.863 L288.133,329.863 C288.228333,329.863 288.306333,329.8305 288.367,329.7655 C288.427667,329.7005 288.458,329.624667 288.458,329.538 L288.458,329.538 L288.458,328.225 C288.458,328.129667 288.427667,328.051667 288.367,327.991 C288.306333,327.930333 288.228333,327.9 288.133,327.9 L288.133,327.9 L282.153,327.9 C282.066333,327.9 281.9905,327.930333 281.9255,327.991 C281.8605,328.051667 281.828,328.129667 281.828,328.225 L281.828,328.225 L281.828,336.675 C281.828,336.761667 281.8605,336.8375 281.9255,336.9025 C281.9905,336.9675 282.066333,337 282.153,337 L282.153,337 L283.791,337 Z M293.632,337 C294.914667,337 295.891833,336.7075 296.5635,336.1225 C297.235167,335.5375 297.592667,334.642667 297.636,333.438 C297.644667,333.195333 297.649,332.866 297.649,332.45 C297.649,332.034 297.644667,331.700333 297.636,331.449 C297.601333,330.296333 297.233,329.416667 296.531,328.81 C295.829,328.203333 294.841,327.9 293.567,327.9 L293.567,327.9 L290.187,327.9 C290.100333,327.9 290.0245,327.930333 289.9595,327.991 C289.8945,328.051667 289.862,328.129667 289.862,328.225 L289.862,328.225 L289.862,336.675 C289.862,336.761667 289.8945,336.8375 289.9595,336.9025 C290.0245,336.9675 290.100333,337 290.187,337 L290.187,337 L293.632,337 Z M293.567,335.128 L292.202,335.128 L292.202,329.772 L293.502,329.772 C294.074,329.772 294.505167,329.910667 294.7955,330.188 C295.085833,330.465333 295.239667,330.894333 295.257,331.475 C295.274333,331.717667 295.283,332.038333 295.283,332.437 C295.283,332.835667 295.274333,333.160667 295.257,333.412 C295.239667,334.01 295.096667,334.4455 294.828,334.7185 C294.559333,334.9915 294.139,335.128 293.567,335.128 L293.567,335.128 Z M302.901,337.13 C303.663667,337.13 304.348333,337.002167 304.955,336.7465 C305.561667,336.490833 306.0405,336.126833 306.3915,335.6545 C306.7425,335.182167 306.922333,334.629667 306.931,333.997 C306.939667,333.919 306.915833,333.854 306.8595,333.802 C306.803167,333.75 306.736,333.724 306.658,333.724 L306.658,333.724 L304.903,333.724 C304.781667,333.724 304.690667,333.747833 304.63,333.7955 C304.569333,333.843167 304.521667,333.932 304.487,334.062 C304.383,334.486667 304.196667,334.792167 303.928,334.9785 C303.659333,335.164833 303.312667,335.258 302.888,335.258 C301.865333,335.258 301.336667,334.686 301.302,333.542 C301.293333,333.290667 301.289,332.922333 301.289,332.437 L301.289265,332.236694 C301.290327,331.851469 301.294571,331.558571 301.302,331.358 C301.336667,330.214 301.865333,329.642 302.888,329.642 C303.312667,329.642 303.655,329.730833 303.915,329.9085 C304.175,330.086167 304.365667,330.396 304.487,330.838 C304.530333,330.968 304.582333,331.056833 304.643,331.1045 C304.703667,331.152167 304.790333,331.176 304.903,331.176 L304.903,331.176 L306.658,331.176 C306.727333,331.176 306.790167,331.152167 306.8465,331.1045 C306.902833,331.056833 306.931,330.998333 306.931,330.929 L306.931,330.929 L306.931,330.903 C306.922333,330.270333 306.7425,329.717833 306.3915,329.2455 C306.0405,328.773167 305.561667,328.409167 304.955,328.1535 C304.348333,327.897833 303.663667,327.77 302.901,327.77 C301.687667,327.77 300.725667,328.0755 300.015,328.6865 C299.304333,329.2975 298.927333,330.166333 298.884,331.293 C298.875333,331.535667 298.871,331.925667 298.871,332.463 L298.871265,332.680551 C298.872327,333.097612 298.876571,333.406429 298.884,333.607 C298.927333,334.751 299.297833,335.624167 299.9955,336.2265 C300.693167,336.828833 301.661667,337.13 302.901,337.13 Z M311.78,337.13 C312.603333,337.13 313.303167,337.004333 313.8795,336.753 C314.455833,336.501667 314.887,336.1615 315.173,335.7325 C315.459,335.3035 315.602,334.820333 315.602,334.283 C315.602,333.806333 315.487167,333.381667 315.2575,333.009 C315.027833,332.636333 314.718,332.354667 314.328,332.164 C314.934667,331.748 315.238,331.145667 315.238,330.357 C315.238,329.585667 314.9455,328.961667 314.3605,328.485 C313.7755,328.008333 312.915333,327.77 311.78,327.77 C311.008667,327.77 310.363,327.882667 309.843,328.108 C309.323,328.333333 308.935167,328.643167 308.6795,329.0375 C308.423833,329.431833 308.296,329.876 308.296,330.37 C308.296,330.76 308.376167,331.106667 308.5365,331.41 C308.696833,331.713333 308.928667,331.964667 309.232,332.164 C308.850667,332.372 308.545167,332.660167 308.3155,333.0285 C308.085833,333.396833 307.971,333.810667 307.971,334.27 C307.971,334.807333 308.111833,335.292667 308.3935,335.726 C308.675167,336.159333 309.102,336.501667 309.674,336.753 C310.246,337.004333 310.948,337.13 311.78,337.13 Z M311.78,331.514 C311.398667,331.514 311.086667,331.418667 310.844,331.228 C310.601333,331.037333 310.48,330.786 310.48,330.474 C310.48,330.162 310.601333,329.910667 310.844,329.72 C311.086667,329.529333 311.398667,329.434 311.78,329.434 C312.161333,329.434 312.473333,329.529333 312.716,329.72 C312.958667,329.910667 313.08,330.162 313.08,330.474 C313.08,330.777333 312.958667,331.024333 312.716,331.215 C312.473333,331.405667 312.161333,331.505333 311.78,331.514 Z M311.78,335.466 C311.355333,335.466 311.002167,335.357667 310.7205,335.141 C310.438833,334.924333 310.298,334.634 310.298,334.27 C310.298,333.906 310.438833,333.617833 310.7205,333.4055 C311.002167,333.193167 311.355333,333.087 311.78,333.087 C312.204667,333.087 312.555667,333.193167 312.833,333.4055 C313.110333,333.617833 313.249,333.906 313.249,334.27 C313.249,334.634 313.110333,334.924333 312.833,335.141 C312.555667,335.357667 312.204667,335.466 311.78,335.466 Z M323.727,337 C323.822333,337 323.9025,336.969667 323.9675,336.909 C324.0325,336.848333 324.065,336.770333 324.065,336.675 L324.065,336.675 L324.065,335.362 C324.065,335.266667 324.0325,335.188667 323.9675,335.128 C323.9025,335.067333 323.822333,335.037 323.727,335.037 L323.727,335.037 L320.386,335.037 L321.582,333.828 C322.353333,333.247333 322.9275,332.707833 323.3045,332.2095 C323.6815,331.711167 323.87,331.158667 323.87,330.552 C323.87,329.988667 323.735667,329.494667 323.467,329.07 C323.198333,328.645333 322.804,328.316 322.284,328.082 C321.764,327.848 321.14,327.731 320.412,327.731 C319.718667,327.731 319.1055,327.8675 318.5725,328.1405 C318.0395,328.4135 317.627833,328.781833 317.3375,329.2455 C317.047167,329.709167 316.893333,330.218333 316.876,330.773 C316.876,330.851 316.902,330.916 316.954,330.968 C317.006,331.02 317.071,331.046 317.149,331.046 L317.149,331.046 L318.774,331.046 C319.016667,331.046 319.164,330.946333 319.216,330.747 C319.276667,330.426333 319.402333,330.159833 319.593,329.9475 C319.783667,329.735167 320.056667,329.629 320.412,329.629 C321.088,329.629 321.426,329.971333 321.426,330.656 C321.426,330.907333 321.322,331.171667 321.114,331.449 C320.906,331.726333 320.598333,332.034 320.191,332.372 C319.783667,332.71 319.185667,333.182333 318.397,333.789 L318.397,333.789 L317.045,335.115 C316.828333,335.279667 316.72,335.492 316.72,335.752 L316.72,335.752 L316.72,336.675 C316.72,336.770333 316.7525,336.848333 316.8175,336.909 C316.8825,336.969667 316.962667,337 317.058,337 L317.058,337 L323.727,337 Z M327.51,337 C327.605333,337 327.683333,336.969667 327.744,336.909 C327.804667,336.848333 327.835,336.770333 327.835,336.675 L327.835,336.675 L327.835,333.737 L331.592,333.737 C331.687333,333.737 331.765333,333.7045 331.826,333.6395 C331.886667,333.5745 331.917,333.498667 331.917,333.412 L331.917,333.412 L331.917,332.112 C331.917,332.016667 331.886667,331.9365 331.826,331.8715 C331.765333,331.8065 331.687333,331.774 331.592,331.774 L331.592,331.774 L327.835,331.774 L327.835,329.863 L331.852,329.863 C331.947333,329.863 332.025333,329.8305 332.086,329.7655 C332.146667,329.7005 332.177,329.624667 332.177,329.538 L332.177,329.538 L332.177,328.225 C332.177,328.129667 332.146667,328.051667 332.086,327.991 C332.025333,327.930333 331.947333,327.9 331.852,327.9 L331.852,327.9 L325.872,327.9 C325.785333,327.9 325.7095,327.930333 325.6445,327.991 C325.5795,328.051667 325.547,328.129667 325.547,328.225 L325.547,328.225 L325.547,336.675 C325.547,336.761667 325.5795,336.8375 325.6445,336.9025 C325.7095,336.9675 325.785333,337 325.872,337 L325.872,337 L327.51,337 Z" id="#FDC82F" fill="#FFFFFF" fill-rule="nonzero"></path>
        <circle id="Oval" fill="#6592CF" cx="180" cy="150" r="100"></circle>
        <circle id="Oval" fill="#243D83" cx="180" cy="150" r="65"></circle>
        <circle id="Oval" fill="#FDC82F" cx="180" cy="150" r="30"></circle>
        <path d="M80,472 C80,496.81565 89.0391395,519.520095 104.004509,537.000428 L48,537 L48,407 L104.005304,406.998644 C89.0394594,424.479101 80,447.183911 80,472 Z M312,407 L312,537 L255.995491,537.000428 C270.960861,519.520095 280,496.81565 280,472 C280,447.183911 270.960541,424.479101 255.994696,406.998644 L312,407 Z" id="Combined-Shape" stroke="#FFFFFF" stroke-width="3"></path>
        <circle id="Oval" stroke="#FFFFFF" stroke-width="3" fill="#2C2C2F" cx="180" cy="472" r="65"></circle>
        <circle id="Oval" stroke="#FFFFFF" stroke-width="3" fill="#2C2C2F" cx="180" cy="472" r="30"></circle>
        <line x1="177.677287" y1="261.505514" x2="179.174427" y2="525.501269" id="Line" stroke="#F8E71C" stroke-width="3" stroke-linecap="square" stroke-dasharray="1,6" transform="translate(178.374083, 393.500000) rotate(90.324925) translate(-178.374083, -393.500000) "></line>
        <rect id="Rectangle" fill="#F8E71C" transform="translate(48.000000, 393.551754) rotate(90.000000) translate(-48.000000, -393.551754) " x="42" y="392.051754" width="12" height="3"></rect>
        <rect id="Rectangle" fill="#F8E71C" transform="translate(313.000000, 393.551754) rotate(90.000000) translate(-313.000000, -393.551754) " x="307" y="392.051754" width="12" height="3"></rect>
        <rect id="Rectangle" fill="#F8E71C" x="158" y="387" width="44" height="13"></rect>
        <path d="M167.85,397 C167.938,397 168.012,396.972 168.072,396.916 C168.132,396.86 168.162,396.788 168.162,396.7 L168.162,396.7 L168.162,395.488 C168.162,395.4 168.132,395.328 168.072,395.272 C168.012,395.216 167.938,395.188 167.85,395.188 L167.85,395.188 L164.766,395.188 L165.87,394.072 C166.582,393.536 167.112,393.038 167.46,392.578 C167.808,392.118 167.982,391.608 167.982,391.048 C167.982,390.528 167.858,390.072 167.61,389.68 C167.362,389.288 166.998,388.984 166.518,388.768 C166.038,388.552 165.462,388.444 164.79,388.444 C164.15,388.444 163.584,388.57 163.092,388.822 C162.6,389.074 162.22,389.414 161.952,389.842 C161.684,390.27 161.542,390.74 161.526,391.252 C161.526,391.324 161.55,391.384 161.598,391.432 C161.646,391.48 161.706,391.504 161.778,391.504 L161.778,391.504 L163.278,391.504 C163.502,391.504 163.638,391.412 163.686,391.228 C163.742,390.932 163.858,390.686 164.034,390.49 C164.21,390.294 164.462,390.196 164.79,390.196 C165.414,390.196 165.726,390.512 165.726,391.144 C165.726,391.376 165.63,391.62 165.438,391.876 C165.246,392.132 164.962,392.416 164.586,392.728 C164.21,393.04 163.658,393.476 162.93,394.036 L162.93,394.036 L161.682,395.26 C161.482,395.412 161.382,395.608 161.382,395.848 L161.382,395.848 L161.382,396.7 C161.382,396.788 161.412,396.86 161.472,396.916 C161.532,396.972 161.606,397 161.694,397 L161.694,397 L167.85,397 Z M172.662,397.12 C173.35,397.12 173.96,396.984 174.492,396.712 C175.024,396.44 175.434,396.072 175.722,395.608 C176.01,395.144 176.154,394.632 176.154,394.072 C176.154,393.528 176.01,393.04 175.722,392.608 C175.434,392.176 175.06,391.838 174.6,391.594 C174.14,391.35 173.666,391.216 173.178,391.192 C173.034,391.192 172.914,391.204 172.818,391.228 L172.818,391.228 L174.438,389.02 C174.47,388.972 174.486,388.92 174.486,388.864 C174.486,388.792 174.462,388.73 174.414,388.678 C174.366,388.626 174.306,388.6 174.234,388.6 L174.234,388.6 L172.638,388.6 C172.534,388.6 172.452,388.622 172.392,388.666 C172.332,388.71 172.27,388.768 172.206,388.84 L172.206,388.84 L170.094,391.684 C169.422,392.596 169.086,393.408 169.086,394.12 C169.086,394.704 169.236,395.224 169.536,395.68 C169.836,396.136 170.256,396.49 170.796,396.742 C171.336,396.994 171.958,397.12 172.662,397.12 Z M172.638,395.392 C172.262,395.392 171.946,395.278 171.69,395.05 C171.434,394.822 171.306,394.508 171.306,394.108 C171.306,393.708 171.434,393.396 171.69,393.172 C171.946,392.948 172.262,392.836 172.638,392.836 C173.014,392.836 173.328,392.948 173.58,393.172 C173.832,393.396 173.958,393.708 173.958,394.108 C173.958,394.508 173.83,394.822 173.574,395.05 C173.318,395.278 173.006,395.392 172.638,395.392 Z M182.658,397 C182.746,397 182.818,396.97 182.874,396.91 C182.93,396.85 182.958,396.78 182.958,396.7 L182.958,396.7 L182.958,395.344 L184.026,395.344 C184.114,395.344 184.186,395.316 184.242,395.26 C184.298,395.204 184.326,395.132 184.326,395.044 L184.326,395.044 L184.326,393.856 C184.326,393.776 184.298,393.706 184.242,393.646 C184.186,393.586 184.11,393.556 184.014,393.556 L184.014,393.556 L182.958,393.556 L182.958,388.9 C182.958,388.812 182.93,388.74 182.874,388.684 C182.818,388.628 182.746,388.6 182.658,388.6 L182.658,388.6 L180.906,388.6 C180.722,388.6 180.574,388.668 180.462,388.804 L180.462,388.804 L176.97,393.532 C176.882,393.66 176.838,393.784 176.838,393.904 L176.838,393.904 L176.838,395.044 C176.838,395.132 176.866,395.204 176.922,395.26 C176.978,395.316 177.05,395.344 177.138,395.344 L177.138,395.344 L180.87,395.344 L180.87,396.7 C180.87,396.78 180.9,396.85 180.96,396.91 C181.02,396.97 181.09,397 181.17,397 L181.17,397 L182.658,397 Z M180.918,393.64 L178.902,393.64 L180.918,390.808 L180.918,393.64 Z M187.17,399.28 C187.258,399.28 187.33,399.252 187.386,399.196 C187.442,399.14 187.47,399.068 187.47,398.98 L187.47,398.98 L187.47,396.316 C187.854,396.852 188.438,397.12 189.222,397.12 C189.998,397.12 190.61,396.87 191.058,396.37 C191.506,395.87 191.746,395.188 191.778,394.324 C191.786,394.22 191.79,394.072 191.79,393.88 C191.79,393.688 191.786,393.54 191.778,393.436 C191.738,392.548 191.498,391.86 191.058,391.372 C190.618,390.884 190.006,390.64 189.222,390.64 C188.414,390.64 187.794,390.924 187.362,391.492 L187.362,391.492 L187.362,391.06 C187.362,390.972 187.334,390.9 187.278,390.844 C187.222,390.788 187.15,390.76 187.062,390.76 L187.062,390.76 L185.706,390.76 C185.626,390.76 185.556,390.788 185.496,390.844 C185.436,390.9 185.406,390.972 185.406,391.06 L185.406,391.06 L185.406,398.98 C185.406,399.068 185.436,399.14 185.496,399.196 C185.556,399.252 185.626,399.28 185.706,399.28 L185.706,399.28 L187.17,399.28 Z M188.574,395.512 C188.222,395.512 187.954,395.404 187.77,395.188 C187.586,394.972 187.486,394.7 187.47,394.372 L187.47,394.372 L187.458,393.916 L187.47,393.472 C187.494,393.112 187.592,392.818 187.764,392.59 C187.936,392.362 188.206,392.248 188.574,392.248 C188.95,392.248 189.22,392.36 189.384,392.584 C189.548,392.808 189.642,393.116 189.666,393.508 C189.682,393.668 189.69,393.792 189.69,393.88 C189.69,393.968 189.682,394.092 189.666,394.252 C189.642,394.644 189.548,394.952 189.384,395.176 C189.22,395.4 188.95,395.512 188.574,395.512 Z M194.01,397 C194.09,397 194.154,396.984 194.202,396.952 C194.25,396.92 194.298,396.872 194.346,396.808 L194.346,396.808 L195.57,395.164 L196.782,396.808 C196.87,396.936 196.982,397 197.118,397 L197.118,397 L198.654,397 C198.726,397 198.788,396.974 198.84,396.922 C198.892,396.87 198.918,396.804 198.918,396.724 C198.918,396.66 198.898,396.6 198.858,396.544 L198.858,396.544 L196.818,393.796 L198.69,391.216 C198.73,391.168 198.75,391.104 198.75,391.024 C198.75,390.952 198.724,390.89 198.672,390.838 C198.62,390.786 198.558,390.76 198.486,390.76 L198.486,390.76 L197.082,390.76 C196.986,390.76 196.914,390.78 196.866,390.82 C196.818,390.86 196.77,390.912 196.722,390.976 L196.722,390.976 L195.618,392.5 L194.502,390.964 C194.414,390.828 194.298,390.76 194.154,390.76 L194.154,390.76 L192.69,390.76 C192.618,390.76 192.554,390.786 192.498,390.838 C192.442,390.89 192.414,390.952 192.414,391.024 C192.414,391.088 192.438,391.152 192.486,391.216 L192.486,391.216 L194.31,393.796 L192.306,396.544 C192.266,396.6 192.246,396.66 192.246,396.724 C192.246,396.804 192.272,396.87 192.324,396.922 C192.376,396.974 192.438,397 192.51,397 L192.51,397 L194.01,397 Z" id="264px" fill="#222222" fill-rule="nonzero"></path>
        <line x1="25.75" y1="411.25" x2="26.5" y2="537.5" id="Line" stroke="#F8E71C" stroke-width="3" stroke-linecap="square" stroke-dasharray="1,6"></line>
        <rect id="Rectangle" fill="#F8E71C" x="20" y="536" width="12" height="3"></rect>
        <rect id="Rectangle" fill="#F8E71C" x="20" y="406" width="12" height="3"></rect>
        <rect id="Rectangle" fill="#F8E71C" transform="translate(25.500000, 468.000000) rotate(270.000000) translate(-25.500000, -468.000000) " x="3.5" y="461.5" width="44" height="13"></rect>
        <path d="M12.662,472.5 C12.75,472.5 12.822,472.47 12.878,472.41 C12.934,472.35 12.962,472.28 12.962,472.2 L12.962,472.2 L12.962,464.4 C12.962,464.312 12.934,464.24 12.878,464.184 C12.822,464.128 12.75,464.1 12.662,464.1 L12.662,464.1 L11.162,464.1 C11.058,464.1 10.962,464.128 10.874,464.184 L10.874,464.184 L8.114,466.32 C8.018,466.376 7.97,466.46 7.97,466.572 C7.97,466.628 7.99,466.688 8.03,466.752 L8.03,466.752 L8.738,467.676 C8.81,467.772 8.89,467.82 8.978,467.82 C9.042,467.82 9.102,467.796 9.158,467.748 L9.158,467.748 L10.802,466.488 L10.802,472.2 C10.802,472.28 10.832,472.35 10.892,472.41 C10.952,472.47 11.022,472.5 11.102,472.5 L11.102,472.5 L12.662,472.5 Z M17.642,472.62 C18.314,472.62 18.918,472.512 19.454,472.296 C19.99,472.08 20.41,471.772 20.714,471.372 C21.018,470.972 21.17,470.504 21.17,469.968 C21.17,469.232 20.956,468.666 20.528,468.27 C20.1,467.874 19.518,467.628 18.782,467.532 L18.782,467.532 L18.698,467.508 L20.522,465.816 C20.65,465.704 20.714,465.572 20.714,465.42 L20.714,465.42 L20.714,464.4 C20.714,464.312 20.684,464.24 20.624,464.184 C20.564,464.128 20.49,464.1 20.402,464.1 L20.402,464.1 L14.882,464.1 C14.802,464.1 14.732,464.128 14.672,464.184 C14.612,464.24 14.582,464.312 14.582,464.4 L14.582,464.4 L14.582,465.528 C14.582,465.608 14.612,465.678 14.672,465.738 C14.732,465.798 14.802,465.828 14.882,465.828 L14.882,465.828 L18.218,465.828 L16.25,467.496 C16.122,467.592 16.058,467.728 16.058,467.904 L16.058,467.904 L16.058,468.576 C16.058,468.656 16.088,468.726 16.148,468.786 C16.208,468.846 16.278,468.876 16.358,468.876 L16.358,468.876 L17.69,468.876 C18.522,468.876 18.938,469.196 18.938,469.836 C18.938,470.164 18.824,470.422 18.596,470.61 C18.368,470.798 18.05,470.892 17.642,470.892 C16.93,470.892 16.494,470.684 16.334,470.268 C16.286,470.18 16.234,470.12 16.178,470.088 C16.122,470.056 16.05,470.04 15.962,470.04 L15.962,470.04 L14.39,470.04 C14.318,470.04 14.256,470.064 14.204,470.112 C14.152,470.16 14.126,470.22 14.126,470.292 C14.142,470.652 14.276,471.01 14.528,471.366 C14.78,471.722 15.168,472.02 15.692,472.26 C16.216,472.5 16.866,472.62 17.642,472.62 Z M25.718,472.62 C26.822,472.612 27.658,472.318 28.226,471.738 C28.794,471.158 29.106,470.396 29.162,469.452 C29.178,469.02 29.186,468.636 29.186,468.3 C29.186,467.956 29.178,467.56 29.162,467.112 C29.114,466.184 28.798,465.432 28.214,464.856 C27.63,464.28 26.798,463.988 25.718,463.98 C24.99,463.98 24.374,464.118 23.87,464.394 C23.366,464.67 22.984,465.042 22.724,465.51 C22.464,465.978 22.318,466.512 22.286,467.112 C22.27,467.56 22.262,467.956 22.262,468.3 C22.262,468.636 22.27,469.02 22.286,469.452 C22.334,470.396 22.642,471.158 23.21,471.738 C23.778,472.318 24.614,472.612 25.718,472.62 Z M25.718,470.88 C24.958,470.88 24.558,470.384 24.518,469.392 C24.5122857,469.226286 24.5086122,468.989143 24.5069796,468.680571 L24.5069796,467.873388 C24.5086122,467.568082 24.5122857,467.338286 24.518,467.184 C24.534,466.728 24.64,466.368 24.836,466.104 C25.032,465.84 25.326,465.704 25.718,465.696 C26.118,465.704 26.414,465.84 26.606,466.104 C26.798,466.368 26.902,466.728 26.918,467.184 C26.934,467.4 26.942,467.764 26.942,468.276 C26.942,468.788 26.934,469.16 26.918,469.392 C26.902,469.864 26.796,470.23 26.6,470.49 C26.404,470.75 26.11,470.88 25.718,470.88 Z M32.282,474.78 C32.37,474.78 32.442,474.752 32.498,474.696 C32.554,474.64 32.582,474.568 32.582,474.48 L32.582,474.48 L32.582,471.816 C32.966,472.352 33.55,472.62 34.334,472.62 C35.11,472.62 35.722,472.37 36.17,471.87 C36.618,471.37 36.858,470.688 36.89,469.824 C36.898,469.72 36.902,469.572 36.902,469.38 C36.902,469.188 36.898,469.04 36.89,468.936 C36.85,468.048 36.61,467.36 36.17,466.872 C35.73,466.384 35.118,466.14 34.334,466.14 C33.526,466.14 32.906,466.424 32.474,466.992 L32.474,466.992 L32.474,466.56 C32.474,466.472 32.446,466.4 32.39,466.344 C32.334,466.288 32.262,466.26 32.174,466.26 L32.174,466.26 L30.818,466.26 C30.738,466.26 30.668,466.288 30.608,466.344 C30.548,466.4 30.518,466.472 30.518,466.56 L30.518,466.56 L30.518,474.48 C30.518,474.568 30.548,474.64 30.608,474.696 C30.668,474.752 30.738,474.78 30.818,474.78 L30.818,474.78 L32.282,474.78 Z M33.686,471.012 C33.334,471.012 33.066,470.904 32.882,470.688 C32.698,470.472 32.598,470.2 32.582,469.872 L32.582,469.872 L32.57,469.416 L32.582,468.972 C32.606,468.612 32.704,468.318 32.876,468.09 C33.048,467.862 33.318,467.748 33.686,467.748 C34.062,467.748 34.332,467.86 34.496,468.084 C34.66,468.308 34.754,468.616 34.778,469.008 C34.794,469.168 34.802,469.292 34.802,469.38 C34.802,469.468 34.794,469.592 34.778,469.752 C34.754,470.144 34.66,470.452 34.496,470.676 C34.332,470.9 34.062,471.012 33.686,471.012 Z M39.122,472.5 C39.202,472.5 39.266,472.484 39.314,472.452 C39.362,472.42 39.41,472.372 39.458,472.308 L39.458,472.308 L40.682,470.664 L41.894,472.308 C41.982,472.436 42.094,472.5 42.23,472.5 L42.23,472.5 L43.766,472.5 C43.838,472.5 43.9,472.474 43.952,472.422 C44.004,472.37 44.03,472.304 44.03,472.224 C44.03,472.16 44.01,472.1 43.97,472.044 L43.97,472.044 L41.93,469.296 L43.802,466.716 C43.842,466.668 43.862,466.604 43.862,466.524 C43.862,466.452 43.836,466.39 43.784,466.338 C43.732,466.286 43.67,466.26 43.598,466.26 L43.598,466.26 L42.194,466.26 C42.098,466.26 42.026,466.28 41.978,466.32 C41.93,466.36 41.882,466.412 41.834,466.476 L41.834,466.476 L40.73,468 L39.614,466.464 C39.526,466.328 39.41,466.26 39.266,466.26 L39.266,466.26 L37.802,466.26 C37.73,466.26 37.666,466.286 37.61,466.338 C37.554,466.39 37.526,466.452 37.526,466.524 C37.526,466.588 37.55,466.652 37.598,466.716 L37.598,466.716 L39.422,469.296 L37.418,472.044 C37.378,472.1 37.358,472.16 37.358,472.224 C37.358,472.304 37.384,472.37 37.436,472.422 C37.488,472.474 37.55,472.5 37.622,472.5 L37.622,472.5 L39.122,472.5 Z" id="130px" fill="#222222" fill-rule="nonzero" transform="translate(26.000000, 469.380000) rotate(270.000000) translate(-26.000000, -469.380000) "></path>
        <line x1="180.391486" y1="443.443104" x2="180.726074" y2="502.442155" id="Line" stroke="#F8E71C" stroke-width="3" stroke-linecap="square" stroke-dasharray="1,6" transform="translate(180.999453, 472.940677) rotate(90.324925) translate(-180.999453, -472.940677) "></line>
        <rect id="Rectangle" fill="#F8E71C" transform="translate(151.129602, 472.500000) rotate(90.000000) translate(-151.129602, -472.500000) " x="145.129602" y="471" width="12" height="3"></rect>
        <rect id="Rectangle" fill="#F8E71C" transform="translate(210.129602, 472.500000) rotate(90.000000) translate(-210.129602, -472.500000) " x="204.129602" y="471" width="12" height="3"></rect>
        <rect id="Rectangle" fill="#F8E71C" x="164" y="466" width="35" height="13"></rect>
        <path d="M170.28,476.12 C170.968,476.12 171.578,475.984 172.11,475.712 C172.642,475.44 173.052,475.072 173.34,474.608 C173.628,474.144 173.772,473.632 173.772,473.072 C173.772,472.528 173.628,472.04 173.34,471.608 C173.052,471.176 172.678,470.838 172.218,470.594 C171.758,470.35 171.284,470.216 170.796,470.192 C170.652,470.192 170.532,470.204 170.436,470.228 L170.436,470.228 L172.056,468.02 C172.088,467.972 172.104,467.92 172.104,467.864 C172.104,467.792 172.08,467.73 172.032,467.678 C171.984,467.626 171.924,467.6 171.852,467.6 L171.852,467.6 L170.256,467.6 C170.152,467.6 170.07,467.622 170.01,467.666 C169.95,467.71 169.888,467.768 169.824,467.84 L169.824,467.84 L167.712,470.684 C167.04,471.596 166.704,472.408 166.704,473.12 C166.704,473.704 166.854,474.224 167.154,474.68 C167.454,475.136 167.874,475.49 168.414,475.742 C168.954,475.994 169.576,476.12 170.28,476.12 Z M170.256,474.392 C169.88,474.392 169.564,474.278 169.308,474.05 C169.052,473.822 168.924,473.508 168.924,473.108 C168.924,472.708 169.052,472.396 169.308,472.172 C169.564,471.948 169.88,471.836 170.256,471.836 C170.632,471.836 170.946,471.948 171.198,472.172 C171.45,472.396 171.576,472.708 171.576,473.108 C171.576,473.508 171.448,473.822 171.192,474.05 C170.936,474.278 170.624,474.392 170.256,474.392 Z M178.188,476.12 C179.292,476.112 180.128,475.818 180.696,475.238 C181.264,474.658 181.576,473.896 181.632,472.952 C181.648,472.52 181.656,472.136 181.656,471.8 C181.656,471.456 181.648,471.06 181.632,470.612 C181.584,469.684 181.268,468.932 180.684,468.356 C180.1,467.78 179.268,467.488 178.188,467.48 C177.46,467.48 176.844,467.618 176.34,467.894 C175.836,468.17 175.454,468.542 175.194,469.01 C174.934,469.478 174.788,470.012 174.756,470.612 C174.74,471.06 174.732,471.456 174.732,471.8 C174.732,472.136 174.74,472.52 174.756,472.952 C174.804,473.896 175.112,474.658 175.68,475.238 C176.248,475.818 177.084,476.112 178.188,476.12 Z M178.188,474.38 C177.428,474.38 177.028,473.884 176.988,472.892 C176.982286,472.726286 176.978612,472.489143 176.97698,472.180571 L176.97698,471.373388 C176.978612,471.068082 176.982286,470.838286 176.988,470.684 C177.004,470.228 177.11,469.868 177.306,469.604 C177.502,469.34 177.796,469.204 178.188,469.196 C178.588,469.204 178.884,469.34 179.076,469.604 C179.268,469.868 179.372,470.228 179.388,470.684 C179.404,470.9 179.412,471.264 179.412,471.776 C179.412,472.288 179.404,472.66 179.388,472.892 C179.372,473.364 179.266,473.73 179.07,473.99 C178.874,474.25 178.58,474.38 178.188,474.38 Z M184.752,478.28 C184.84,478.28 184.912,478.252 184.968,478.196 C185.024,478.14 185.052,478.068 185.052,477.98 L185.052,477.98 L185.052,475.316 C185.436,475.852 186.02,476.12 186.804,476.12 C187.58,476.12 188.192,475.87 188.64,475.37 C189.088,474.87 189.328,474.188 189.36,473.324 C189.368,473.22 189.372,473.072 189.372,472.88 C189.372,472.688 189.368,472.54 189.36,472.436 C189.32,471.548 189.08,470.86 188.64,470.372 C188.2,469.884 187.588,469.64 186.804,469.64 C185.996,469.64 185.376,469.924 184.944,470.492 L184.944,470.492 L184.944,470.06 C184.944,469.972 184.916,469.9 184.86,469.844 C184.804,469.788 184.732,469.76 184.644,469.76 L184.644,469.76 L183.288,469.76 C183.208,469.76 183.138,469.788 183.078,469.844 C183.018,469.9 182.988,469.972 182.988,470.06 L182.988,470.06 L182.988,477.98 C182.988,478.068 183.018,478.14 183.078,478.196 C183.138,478.252 183.208,478.28 183.288,478.28 L183.288,478.28 L184.752,478.28 Z M186.156,474.512 C185.804,474.512 185.536,474.404 185.352,474.188 C185.168,473.972 185.068,473.7 185.052,473.372 L185.052,473.372 L185.04,472.916 L185.052,472.472 C185.076,472.112 185.174,471.818 185.346,471.59 C185.518,471.362 185.788,471.248 186.156,471.248 C186.532,471.248 186.802,471.36 186.966,471.584 C187.13,471.808 187.224,472.116 187.248,472.508 C187.264,472.668 187.272,472.792 187.272,472.88 C187.272,472.968 187.264,473.092 187.248,473.252 C187.224,473.644 187.13,473.952 186.966,474.176 C186.802,474.4 186.532,474.512 186.156,474.512 Z M191.592,476 C191.672,476 191.736,475.984 191.784,475.952 C191.832,475.92 191.88,475.872 191.928,475.808 L191.928,475.808 L193.152,474.164 L194.364,475.808 C194.452,475.936 194.564,476 194.7,476 L194.7,476 L196.236,476 C196.308,476 196.37,475.974 196.422,475.922 C196.474,475.87 196.5,475.804 196.5,475.724 C196.5,475.66 196.48,475.6 196.44,475.544 L196.44,475.544 L194.4,472.796 L196.272,470.216 C196.312,470.168 196.332,470.104 196.332,470.024 C196.332,469.952 196.306,469.89 196.254,469.838 C196.202,469.786 196.14,469.76 196.068,469.76 L196.068,469.76 L194.664,469.76 C194.568,469.76 194.496,469.78 194.448,469.82 C194.4,469.86 194.352,469.912 194.304,469.976 L194.304,469.976 L193.2,471.5 L192.084,469.964 C191.996,469.828 191.88,469.76 191.736,469.76 L191.736,469.76 L190.272,469.76 C190.2,469.76 190.136,469.786 190.08,469.838 C190.024,469.89 189.996,469.952 189.996,470.024 C189.996,470.088 190.02,470.152 190.068,470.216 L190.068,470.216 L191.892,472.796 L189.888,475.544 C189.848,475.6 189.828,475.66 189.828,475.724 C189.828,475.804 189.854,475.87 189.906,475.922 C189.958,475.974 190.02,476 190.092,476 L190.092,476 L191.592,476 Z" id="60px" fill="#222222" fill-rule="nonzero"></path>
        <line x1="180.901039" y1="406.599524" x2="181.099524" y2="441.598961" id="Line" stroke="#F8E71C" stroke-width="3" stroke-linecap="square" stroke-dasharray="1,6" transform="translate(181.000281, 424.099242) rotate(180.324925) translate(-181.000281, -424.099242) "></line>
        <rect id="Rectangle" fill="#F8E71C" transform="translate(181.000000, 406.500000) rotate(180.000000) translate(-181.000000, -406.500000) " x="175" y="405" width="12" height="3"></rect>
        <rect id="Rectangle" fill="#F8E71C" transform="translate(181.000000, 442.500000) rotate(180.000000) translate(-181.000000, -442.500000) " x="175" y="441" width="12" height="3"></rect>
        <line x1="97.5" y1="455" x2="97.6984845" y2="489.999437" id="Line" stroke="#F8E71C" stroke-width="3" stroke-linecap="square" stroke-dasharray="1,6" transform="translate(97.599242, 472.499719) rotate(90.324925) translate(-97.599242, -472.499719) "></line>
        <rect id="Rectangle" fill="#F8E71C" transform="translate(80.000000, 472.500000) rotate(90.000000) translate(-80.000000, -472.500000) " x="74" y="471" width="12" height="3"></rect>
        <rect id="Rectangle" fill="#F8E71C" transform="translate(116.000000, 472.500000) rotate(90.000000) translate(-116.000000, -472.500000) " x="110" y="471" width="12" height="3"></rect>
        <rect id="Rectangle" fill="#F8E71C" x="164" y="419" width="35" height="13"></rect>
        <text id="35px" font-family="Rubik-Bold, Rubik" font-size="12" font-weight="bold" fill="#222222">
            <tspan x="166.464" y="429">35px</tspan>
        </text>
        <rect id="Rectangle" fill="#F8E71C" transform="translate(99.000000, 473.000000) rotate(270.000000) translate(-99.000000, -473.000000) " x="81.5" y="466.5" width="35" height="13"></rect>
        <text id="35px" transform="translate(98.000000, 473.000000) rotate(270.000000) translate(-98.000000, -473.000000) " font-family="Rubik-Bold, Rubik" font-size="12" font-weight="bold" fill="#222222">
            <tspan x="82.964" y="477.5">35px</tspan>
        </text>
    </g>
</svg>