<?xml version="1.0" encoding="UTF-8"?>
<svg width="360px" height="600px" viewBox="0 0 360 600" version="1.1" xmlns="http://www.w3.org/2000/svg" xmlns:xlink="http://www.w3.org/1999/xlink">
    <title>Artboard</title>
    <g id="Artboard" stroke="none" stroke-width="1" fill="none" fill-rule="evenodd">
        <rect fill="#2C2C2F" x="0" y="0" width="360" height="600"></rect>
        <rect id="Rectangle" fill="#FDC82F" x="0" y="0" width="360" height="300"></rect>
        <g id="Group" transform="translate(60.000000, 85.000000)">
            <rect id="Rectangle" fill="#004165" x="0" y="0" width="240" height="130" rx="20"></rect>
            <rect id="Rectangle" fill="#006298" x="0" y="0" width="240" height="110" rx="20"></rect>
            <rect id="Rectangle" fill="#004165" x="46" y="35" width="150" height="40" rx="20"></rect>
        </g>
        <g id="Group" transform="translate(60.000000, 404.000000)" fill="#2C2C2F" stroke="#FFFFFF" stroke-width="3">
            <rect id="Rectangle" x="0" y="0" width="240" height="130" rx="20"></rect>
            <rect id="Rectangle" x="0" y="0" width="240" height="110" rx="20"></rect>
            <rect id="Rectangle" x="46" y="35" width="149" height="40" rx="20"></rect>
        </g>
        <g id="Group-2" transform="translate(28.000000, 320.000000)">
            <circle id="Oval" fill="#FDC82F" cx="12" cy="12" r="12"></circle>
            <path d="M32.938,16.493 C33.0246667,16.493 33.094,16.467 33.146,16.415 C33.198,16.363 33.2326667,16.298 33.25,16.22 L33.25,16.22 L33.432,14.959 L34.758,14.959 L34.576,16.207 C34.5673333,16.285 34.5911667,16.3521667 34.6475,16.4085 C34.7038333,16.4648333 34.771,16.493 34.849,16.493 L34.849,16.493 L35.889,16.493 C35.9756667,16.493 36.045,16.467 36.097,16.415 C36.149,16.363 36.1836667,16.298 36.201,16.22 L36.201,16.22 L36.383,14.959 L37.696,14.959 C37.7826667,14.959 37.8563333,14.9286667 37.917,14.868 C37.9776667,14.8073333 38.008,14.7336667 38.008,14.647 L38.008,14.647 L38.008,13.62 C38.008,13.5333333 37.9776667,13.4618333 37.917,13.4055 C37.8563333,13.3491667 37.7826667,13.321 37.696,13.321 L37.696,13.321 L36.63,13.321 L36.877,11.657 L38.034,11.657 C38.1206667,11.657 38.1943333,11.6266667 38.255,11.566 C38.3156667,11.5053333 38.346,11.4316667 38.346,11.345 L38.346,11.345 L38.346,10.318 C38.346,10.2313333 38.3156667,10.1598333 38.255,10.1035 C38.1943333,10.0471667 38.1206667,10.019 38.034,10.019 L38.034,10.019 L37.111,10.019 L37.306,8.771 C37.306,8.693 37.28,8.62583333 37.228,8.5695 C37.176,8.51316667 37.111,8.485 37.033,8.485 L37.033,8.485 L35.993,8.485 C35.915,8.485 35.85,8.511 35.798,8.563 C35.746,8.615 35.7113333,8.68 35.694,8.758 L35.694,8.758 L35.499,10.019 L34.16,10.019 L34.355,8.771 C34.355,8.693 34.329,8.62583333 34.277,8.5695 C34.225,8.51316667 34.16,8.485 34.082,8.485 L34.082,8.485 L33.042,8.485 C32.964,8.485 32.899,8.511 32.847,8.563 C32.795,8.615 32.7603333,8.68 32.743,8.758 L32.743,8.758 L32.548,10.019 L31.222,10.019 C31.1353333,10.019 31.0638333,10.0471667 31.0075,10.1035 C30.9511667,10.1598333 30.923,10.2313333 30.923,10.318 L30.923,10.318 L30.923,11.345 C30.923,11.4316667 30.9511667,11.5053333 31.0075,11.566 C31.0638333,11.6266667 31.1353333,11.657 31.222,11.657 L31.222,11.657 L32.301,11.657 L32.054,13.321 L30.884,13.321 C30.7973333,13.321 30.7258333,13.3491667 30.6695,13.4055 C30.6131667,13.4618333 30.585,13.5333333 30.585,13.62 L30.585,13.62 L30.585,14.647 C30.585,14.7336667 30.6131667,14.8073333 30.6695,14.868 C30.7258333,14.9286667 30.7973333,14.959 30.884,14.959 L30.884,14.959 L31.807,14.959 L31.625,16.207 C31.6163333,16.285 31.6401667,16.3521667 31.6965,16.4085 C31.7528333,16.4648333 31.82,16.493 31.898,16.493 L31.898,16.493 L32.938,16.493 Z M35.005,13.321 L33.679,13.321 L33.926,11.657 L35.252,11.657 L35.005,13.321 Z M41.791,17 C41.8863333,17 41.9643333,16.9696667 42.025,16.909 C42.0856667,16.8483333 42.116,16.7703333 42.116,16.675 L42.116,16.675 L42.116,13.737 L45.873,13.737 C45.9683333,13.737 46.0463333,13.7045 46.107,13.6395 C46.1676667,13.5745 46.198,13.4986667 46.198,13.412 L46.198,13.412 L46.198,12.112 C46.198,12.0166667 46.1676667,11.9365 46.107,11.8715 C46.0463333,11.8065 45.9683333,11.774 45.873,11.774 L45.873,11.774 L42.116,11.774 L42.116,9.863 L46.133,9.863 C46.2283333,9.863 46.3063333,9.8305 46.367,9.7655 C46.4276667,9.7005 46.458,9.62466667 46.458,9.538 L46.458,9.538 L46.458,8.225 C46.458,8.12966667 46.4276667,8.05166667 46.367,7.991 C46.3063333,7.93033333 46.2283333,7.9 46.133,7.9 L46.133,7.9 L40.153,7.9 C40.0663333,7.9 39.9905,7.93033333 39.9255,7.991 C39.8605,8.05166667 39.828,8.12966667 39.828,8.225 L39.828,8.225 L39.828,16.675 C39.828,16.7616667 39.8605,16.8375 39.9255,16.9025 C39.9905,16.9675 40.0663333,17 40.153,17 L40.153,17 L41.791,17 Z M51.632,17 C52.9146667,17 53.8918333,16.7075 54.5635,16.1225 C55.2351667,15.5375 55.5926667,14.6426667 55.636,13.438 C55.6446667,13.1953333 55.649,12.866 55.649,12.45 C55.649,12.034 55.6446667,11.7003333 55.636,11.449 C55.6013333,10.2963333 55.233,9.41666667 54.531,8.81 C53.829,8.20333333 52.841,7.9 51.567,7.9 L51.567,7.9 L48.187,7.9 C48.1003333,7.9 48.0245,7.93033333 47.9595,7.991 C47.8945,8.05166667 47.862,8.12966667 47.862,8.225 L47.862,8.225 L47.862,16.675 C47.862,16.7616667 47.8945,16.8375 47.9595,16.9025 C48.0245,16.9675 48.1003333,17 48.187,17 L48.187,17 L51.632,17 Z M51.567,15.128 L50.202,15.128 L50.202,9.772 L51.502,9.772 C52.074,9.772 52.5051667,9.91066667 52.7955,10.188 C53.0858333,10.4653333 53.2396667,10.8943333 53.257,11.475 C53.2743333,11.7176667 53.283,12.0383333 53.283,12.437 C53.283,12.8356667 53.2743333,13.1606667 53.257,13.412 C53.2396667,14.01 53.0966667,14.4455 52.828,14.7185 C52.5593333,14.9915 52.139,15.128 51.567,15.128 L51.567,15.128 Z M60.901,17.13 C61.6636667,17.13 62.3483333,17.0021667 62.955,16.7465 C63.5616667,16.4908333 64.0405,16.1268333 64.3915,15.6545 C64.7425,15.1821667 64.9223333,14.6296667 64.931,13.997 C64.9396667,13.919 64.9158333,13.854 64.8595,13.802 C64.8031667,13.75 64.736,13.724 64.658,13.724 L64.658,13.724 L62.903,13.724 C62.7816667,13.724 62.6906667,13.7478333 62.63,13.7955 C62.5693333,13.8431667 62.5216667,13.932 62.487,14.062 C62.383,14.4866667 62.1966667,14.7921667 61.928,14.9785 C61.6593333,15.1648333 61.3126667,15.258 60.888,15.258 C59.8653333,15.258 59.3366667,14.686 59.302,13.542 C59.2933333,13.2906667 59.289,12.9223333 59.289,12.437 L59.2892653,12.2366939 C59.2903265,11.8514694 59.2945714,11.5585714 59.302,11.358 C59.3366667,10.214 59.8653333,9.642 60.888,9.642 C61.3126667,9.642 61.655,9.73083333 61.915,9.9085 C62.175,10.0861667 62.3656667,10.396 62.487,10.838 C62.5303333,10.968 62.5823333,11.0568333 62.643,11.1045 C62.7036667,11.1521667 62.7903333,11.176 62.903,11.176 L62.903,11.176 L64.658,11.176 C64.7273333,11.176 64.7901667,11.1521667 64.8465,11.1045 C64.9028333,11.0568333 64.931,10.9983333 64.931,10.929 L64.931,10.929 L64.931,10.903 C64.9223333,10.2703333 64.7425,9.71783333 64.3915,9.2455 C64.0405,8.77316667 63.5616667,8.40916667 62.955,8.1535 C62.3483333,7.89783333 61.6636667,7.77 60.901,7.77 C59.6876667,7.77 58.7256667,8.0755 58.015,8.6865 C57.3043333,9.2975 56.9273333,10.1663333 56.884,11.293 C56.8753333,11.5356667 56.871,11.9256667 56.871,12.463 L56.8712653,12.680551 C56.8723265,13.0976122 56.8765714,13.4064286 56.884,13.607 C56.9273333,14.751 57.2978333,15.6241667 57.9955,16.2265 C58.6931667,16.8288333 59.6616667,17.13 60.901,17.13 Z M69.78,17.13 C70.6033333,17.13 71.3031667,17.0043333 71.8795,16.753 C72.4558333,16.5016667 72.887,16.1615 73.173,15.7325 C73.459,15.3035 73.602,14.8203333 73.602,14.283 C73.602,13.8063333 73.4871667,13.3816667 73.2575,13.009 C73.0278333,12.6363333 72.718,12.3546667 72.328,12.164 C72.9346667,11.748 73.238,11.1456667 73.238,10.357 C73.238,9.58566667 72.9455,8.96166667 72.3605,8.485 C71.7755,8.00833333 70.9153333,7.77 69.78,7.77 C69.0086667,7.77 68.363,7.88266667 67.843,8.108 C67.323,8.33333333 66.9351667,8.64316667 66.6795,9.0375 C66.4238333,9.43183333 66.296,9.876 66.296,10.37 C66.296,10.76 66.3761667,11.1066667 66.5365,11.41 C66.6968333,11.7133333 66.9286667,11.9646667 67.232,12.164 C66.8506667,12.372 66.5451667,12.6601667 66.3155,13.0285 C66.0858333,13.3968333 65.971,13.8106667 65.971,14.27 C65.971,14.8073333 66.1118333,15.2926667 66.3935,15.726 C66.6751667,16.1593333 67.102,16.5016667 67.674,16.753 C68.246,17.0043333 68.948,17.13 69.78,17.13 Z M69.78,11.514 C69.3986667,11.514 69.0866667,11.4186667 68.844,11.228 C68.6013333,11.0373333 68.48,10.786 68.48,10.474 C68.48,10.162 68.6013333,9.91066667 68.844,9.72 C69.0866667,9.52933333 69.3986667,9.434 69.78,9.434 C70.1613333,9.434 70.4733333,9.52933333 70.716,9.72 C70.9586667,9.91066667 71.08,10.162 71.08,10.474 C71.08,10.7773333 70.9586667,11.0243333 70.716,11.215 C70.4733333,11.4056667 70.1613333,11.5053333 69.78,11.514 Z M69.78,15.466 C69.3553333,15.466 69.0021667,15.3576667 68.7205,15.141 C68.4388333,14.9243333 68.298,14.634 68.298,14.27 C68.298,13.906 68.4388333,13.6178333 68.7205,13.4055 C69.0021667,13.1931667 69.3553333,13.087 69.78,13.087 C70.2046667,13.087 70.5556667,13.1931667 70.833,13.4055 C71.1103333,13.6178333 71.249,13.906 71.249,14.27 C71.249,14.634 71.1103333,14.9243333 70.833,15.141 C70.5556667,15.3576667 70.2046667,15.466 69.78,15.466 Z M81.727,17 C81.8223333,17 81.9025,16.9696667 81.9675,16.909 C82.0325,16.8483333 82.065,16.7703333 82.065,16.675 L82.065,16.675 L82.065,15.362 C82.065,15.2666667 82.0325,15.1886667 81.9675,15.128 C81.9025,15.0673333 81.8223333,15.037 81.727,15.037 L81.727,15.037 L78.386,15.037 L79.582,13.828 C80.3533333,13.2473333 80.9275,12.7078333 81.3045,12.2095 C81.6815,11.7111667 81.87,11.1586667 81.87,10.552 C81.87,9.98866667 81.7356667,9.49466667 81.467,9.07 C81.1983333,8.64533333 80.804,8.316 80.284,8.082 C79.764,7.848 79.14,7.731 78.412,7.731 C77.7186667,7.731 77.1055,7.8675 76.5725,8.1405 C76.0395,8.4135 75.6278333,8.78183333 75.3375,9.2455 C75.0471667,9.70916667 74.8933333,10.2183333 74.876,10.773 C74.876,10.851 74.902,10.916 74.954,10.968 C75.006,11.02 75.071,11.046 75.149,11.046 L75.149,11.046 L76.774,11.046 C77.0166667,11.046 77.164,10.9463333 77.216,10.747 C77.2766667,10.4263333 77.4023333,10.1598333 77.593,9.9475 C77.7836667,9.73516667 78.0566667,9.629 78.412,9.629 C79.088,9.629 79.426,9.97133333 79.426,10.656 C79.426,10.9073333 79.322,11.1716667 79.114,11.449 C78.906,11.7263333 78.5983333,12.034 78.191,12.372 C77.7836667,12.71 77.1856667,13.1823333 76.397,13.789 L76.397,13.789 L75.045,15.115 C74.8283333,15.2796667 74.72,15.492 74.72,15.752 L74.72,15.752 L74.72,16.675 C74.72,16.7703333 74.7525,16.8483333 74.8175,16.909 C74.8825,16.9696667 74.9626667,17 75.058,17 L75.058,17 L81.727,17 Z M85.51,17 C85.6053333,17 85.6833333,16.9696667 85.744,16.909 C85.8046667,16.8483333 85.835,16.7703333 85.835,16.675 L85.835,16.675 L85.835,13.737 L89.592,13.737 C89.6873333,13.737 89.7653333,13.7045 89.826,13.6395 C89.8866667,13.5745 89.917,13.4986667 89.917,13.412 L89.917,13.412 L89.917,12.112 C89.917,12.0166667 89.8866667,11.9365 89.826,11.8715 C89.7653333,11.8065 89.6873333,11.774 89.592,11.774 L89.592,11.774 L85.835,11.774 L85.835,9.863 L89.852,9.863 C89.9473333,9.863 90.0253333,9.8305 90.086,9.7655 C90.1466667,9.7005 90.177,9.62466667 90.177,9.538 L90.177,9.538 L90.177,8.225 C90.177,8.12966667 90.1466667,8.05166667 90.086,7.991 C90.0253333,7.93033333 89.9473333,7.9 89.852,7.9 L89.852,7.9 L83.872,7.9 C83.7853333,7.9 83.7095,7.93033333 83.6445,7.991 C83.5795,8.05166667 83.547,8.12966667 83.547,8.225 L83.547,8.225 L83.547,16.675 C83.547,16.7616667 83.5795,16.8375 83.6445,16.9025 C83.7095,16.9675 83.7853333,17 83.872,17 L83.872,17 L85.51,17 Z" id="#FDC82F" fill="#FFFFFF" fill-rule="nonzero"></path>
            <circle id="Oval" fill="#004165" cx="119" cy="12" r="12"></circle>
            <path d="M139.938,16.493 C140.024667,16.493 140.094,16.467 140.146,16.415 C140.198,16.363 140.232667,16.298 140.25,16.22 L140.25,16.22 L140.432,14.959 L141.758,14.959 L141.576,16.207 C141.567333,16.285 141.591167,16.3521667 141.6475,16.4085 C141.703833,16.4648333 141.771,16.493 141.849,16.493 L141.849,16.493 L142.889,16.493 C142.975667,16.493 143.045,16.467 143.097,16.415 C143.149,16.363 143.183667,16.298 143.201,16.22 L143.201,16.22 L143.383,14.959 L144.696,14.959 C144.782667,14.959 144.856333,14.9286667 144.917,14.868 C144.977667,14.8073333 145.008,14.7336667 145.008,14.647 L145.008,14.647 L145.008,13.62 C145.008,13.5333333 144.977667,13.4618333 144.917,13.4055 C144.856333,13.3491667 144.782667,13.321 144.696,13.321 L144.696,13.321 L143.63,13.321 L143.877,11.657 L145.034,11.657 C145.120667,11.657 145.194333,11.6266667 145.255,11.566 C145.315667,11.5053333 145.346,11.4316667 145.346,11.345 L145.346,11.345 L145.346,10.318 C145.346,10.2313333 145.315667,10.1598333 145.255,10.1035 C145.194333,10.0471667 145.120667,10.019 145.034,10.019 L145.034,10.019 L144.111,10.019 L144.306,8.771 C144.306,8.693 144.28,8.62583333 144.228,8.5695 C144.176,8.51316667 144.111,8.485 144.033,8.485 L144.033,8.485 L142.993,8.485 C142.915,8.485 142.85,8.511 142.798,8.563 C142.746,8.615 142.711333,8.68 142.694,8.758 L142.694,8.758 L142.499,10.019 L141.16,10.019 L141.355,8.771 C141.355,8.693 141.329,8.62583333 141.277,8.5695 C141.225,8.51316667 141.16,8.485 141.082,8.485 L141.082,8.485 L140.042,8.485 C139.964,8.485 139.899,8.511 139.847,8.563 C139.795,8.615 139.760333,8.68 139.743,8.758 L139.743,8.758 L139.548,10.019 L138.222,10.019 C138.135333,10.019 138.063833,10.0471667 138.0075,10.1035 C137.951167,10.1598333 137.923,10.2313333 137.923,10.318 L137.923,10.318 L137.923,11.345 C137.923,11.4316667 137.951167,11.5053333 138.0075,11.566 C138.063833,11.6266667 138.135333,11.657 138.222,11.657 L138.222,11.657 L139.301,11.657 L139.054,13.321 L137.884,13.321 C137.797333,13.321 137.725833,13.3491667 137.6695,13.4055 C137.613167,13.4618333 137.585,13.5333333 137.585,13.62 L137.585,13.62 L137.585,14.647 C137.585,14.7336667 137.613167,14.8073333 137.6695,14.868 C137.725833,14.9286667 137.797333,14.959 137.884,14.959 L137.884,14.959 L138.807,14.959 L138.625,16.207 C138.616333,16.285 138.640167,16.3521667 138.6965,16.4085 C138.752833,16.4648333 138.82,16.493 138.898,16.493 L138.898,16.493 L139.938,16.493 Z M142.005,13.321 L140.679,13.321 L140.926,11.657 L142.252,11.657 L142.005,13.321 Z M150.325,17.13 C151.521,17.1213333 152.426667,16.8028333 153.042,16.1745 C153.657333,15.5461667 153.995333,14.7206667 154.056,13.698 C154.073333,13.23 154.082,12.814 154.082,12.45 C154.082,12.0773333 154.073333,11.6483333 154.056,11.163 C154.004,10.1576667 153.661667,9.343 153.029,8.719 C152.396333,8.095 151.495,7.77866667 150.325,7.77 C149.536333,7.77 148.869,7.9195 148.323,8.2185 C147.777,8.5175 147.363167,8.9205 147.0815,9.4275 C146.799833,9.9345 146.641667,10.513 146.607,11.163 C146.589667,11.6483333 146.581,12.0773333 146.581,12.45 C146.581,12.814 146.589667,13.23 146.607,13.698 C146.659,14.7206667 146.992667,15.5461667 147.608,16.1745 C148.223333,16.8028333 149.129,17.1213333 150.325,17.13 Z M150.325,15.245 C149.501667,15.245 149.068333,14.7076667 149.025,13.633 C149.0185,13.4445 149.014438,13.1706875 149.012812,12.8115625 L149.012812,12.0380625 C149.014438,11.6821875 149.0185,11.4165 149.025,11.241 C149.042333,10.747 149.157167,10.357 149.3695,10.071 C149.581833,9.785 149.900333,9.63766667 150.325,9.629 C150.758333,9.63766667 151.079,9.785 151.287,10.071 C151.495,10.357 151.607667,10.747 151.625,11.241 C151.642333,11.475 151.651,11.8693333 151.651,12.424 C151.651,12.9786667 151.642333,13.3816667 151.625,13.633 C151.607667,14.1443333 151.492833,14.5408333 151.2805,14.8225 C151.068167,15.1041667 150.749667,15.245 150.325,15.245 Z M159.165,17.13 C160.361,17.1213333 161.266667,16.8028333 161.882,16.1745 C162.497333,15.5461667 162.835333,14.7206667 162.896,13.698 C162.913333,13.23 162.922,12.814 162.922,12.45 C162.922,12.0773333 162.913333,11.6483333 162.896,11.163 C162.844,10.1576667 162.501667,9.343 161.869,8.719 C161.236333,8.095 160.335,7.77866667 159.165,7.77 C158.376333,7.77 157.709,7.9195 157.163,8.2185 C156.617,8.5175 156.203167,8.9205 155.9215,9.4275 C155.639833,9.9345 155.481667,10.513 155.447,11.163 C155.429667,11.6483333 155.421,12.0773333 155.421,12.45 C155.421,12.814 155.429667,13.23 155.447,13.698 C155.499,14.7206667 155.832667,15.5461667 156.448,16.1745 C157.063333,16.8028333 157.969,17.1213333 159.165,17.13 Z M159.165,15.245 C158.341667,15.245 157.908333,14.7076667 157.865,13.633 C157.8585,13.4445 157.854438,13.1706875 157.852812,12.8115625 L157.852812,12.0380625 C157.854438,11.6821875 157.8585,11.4165 157.865,11.241 C157.882333,10.747 157.997167,10.357 158.2095,10.071 C158.421833,9.785 158.740333,9.63766667 159.165,9.629 C159.598333,9.63766667 159.919,9.785 160.127,10.071 C160.335,10.357 160.447667,10.747 160.465,11.241 C160.482333,11.475 160.491,11.8693333 160.491,12.424 C160.491,12.9786667 160.482333,13.3816667 160.465,13.633 C160.447667,14.1443333 160.332833,14.5408333 160.1205,14.8225 C159.908167,15.1041667 159.589667,15.245 159.165,15.245 Z M170.267,17 C170.362333,17 170.440333,16.9675 170.501,16.9025 C170.561667,16.8375 170.592,16.7616667 170.592,16.675 L170.592,16.675 L170.592,15.206 L171.749,15.206 C171.844333,15.206 171.922333,15.1756667 171.983,15.115 C172.043667,15.0543333 172.074,14.9763333 172.074,14.881 L172.074,14.881 L172.074,13.594 C172.074,13.5073333 172.043667,13.4315 171.983,13.3665 C171.922333,13.3015 171.84,13.269 171.736,13.269 L171.736,13.269 L170.592,13.269 L170.592,8.225 C170.592,8.12966667 170.561667,8.05166667 170.501,7.991 C170.440333,7.93033333 170.362333,7.9 170.267,7.9 L170.267,7.9 L168.369,7.9 C168.169667,7.9 168.009333,7.97366667 167.888,8.121 L167.888,8.121 L164.105,13.243 C164.009667,13.3816667 163.962,13.516 163.962,13.646 L163.962,13.646 L163.962,14.881 C163.962,14.9763333 163.992333,15.0543333 164.053,15.115 C164.113667,15.1756667 164.191667,15.206 164.287,15.206 L164.287,15.206 L168.33,15.206 L168.33,16.675 C168.33,16.7616667 168.3625,16.8375 168.4275,16.9025 C168.4925,16.9675 168.568333,17 168.655,17 L168.655,17 L170.267,17 Z M168.382,13.36 L166.198,13.36 L168.382,10.292 L168.382,13.36 Z M177.443,17 C177.538333,17 177.616333,16.9675 177.677,16.9025 C177.737667,16.8375 177.768,16.7616667 177.768,16.675 L177.768,16.675 L177.768,8.225 C177.768,8.12966667 177.737667,8.05166667 177.677,7.991 C177.616333,7.93033333 177.538333,7.9 177.443,7.9 L177.443,7.9 L175.818,7.9 C175.705333,7.9 175.601333,7.93033333 175.506,7.991 L175.506,7.991 L172.516,10.305 C172.412,10.3656667 172.36,10.4566667 172.36,10.578 C172.36,10.6386667 172.381667,10.7036667 172.425,10.773 L172.425,10.773 L173.192,11.774 C173.27,11.878 173.356667,11.93 173.452,11.93 C173.521333,11.93 173.586333,11.904 173.647,11.852 L173.647,11.852 L175.428,10.487 L175.428,16.675 C175.428,16.7616667 175.4605,16.8375 175.5255,16.9025 C175.5905,16.9675 175.666333,17 175.753,17 L175.753,17 L177.443,17 Z M182.916,17.13 C183.661333,17.13 184.322167,16.9826667 184.8985,16.688 C185.474833,16.3933333 185.919,15.9946667 186.231,15.492 C186.543,14.9893333 186.699,14.4346667 186.699,13.828 C186.699,13.2386667 186.543,12.71 186.231,12.242 C185.919,11.774 185.513833,11.4078333 185.0155,11.1435 C184.517167,10.8791667 184.003667,10.734 183.475,10.708 C183.319,10.708 183.189,10.721 183.085,10.747 L183.085,10.747 L184.84,8.355 C184.874667,8.303 184.892,8.24666667 184.892,8.186 C184.892,8.108 184.866,8.04083333 184.814,7.9845 C184.762,7.92816667 184.697,7.9 184.619,7.9 L184.619,7.9 L182.89,7.9 C182.777333,7.9 182.6885,7.92383333 182.6235,7.9715 C182.5585,8.01916667 182.491333,8.082 182.422,8.16 L182.422,8.16 L180.134,11.241 C179.406,12.229 179.042,13.1086667 179.042,13.88 C179.042,14.5126667 179.2045,15.076 179.5295,15.57 C179.8545,16.064 180.3095,16.4475 180.8945,16.7205 C181.4795,16.9935 182.153333,17.13 182.916,17.13 Z M182.89,15.258 C182.482667,15.258 182.140333,15.1345 181.863,14.8875 C181.585667,14.6405 181.447,14.3003333 181.447,13.867 C181.447,13.4336667 181.585667,13.0956667 181.863,12.853 C182.140333,12.6103333 182.482667,12.489 182.89,12.489 C183.297333,12.489 183.6375,12.6103333 183.9105,12.853 C184.1835,13.0956667 184.32,13.4336667 184.32,13.867 C184.32,14.3003333 184.181333,14.6405 183.904,14.8875 C183.626667,15.1345 183.288667,15.258 182.89,15.258 Z M191.236,17.143 C192.007333,17.143 192.676833,17.0086667 193.2445,16.74 C193.812167,16.4713333 194.247667,16.0965 194.551,15.6155 C194.854333,15.1345 195.006,14.5863333 195.006,13.971 C195.006,13.3903333 194.860833,12.8746667 194.5705,12.424 C194.280167,11.9733333 193.892333,11.6245 193.407,11.3775 C192.921667,11.1305 192.406,11.007 191.86,11.007 C191.444,11.007 191.106,11.0438333 190.846,11.1175 C190.586,11.1911667 190.347667,11.3016667 190.131,11.449 L190.131,11.449 L190.3,9.772 L194.07,9.772 C194.165333,9.772 194.2455,9.74166667 194.3105,9.681 C194.3755,9.62033333 194.408,9.54233333 194.408,9.447 L194.408,9.447 L194.408,8.225 C194.408,8.12966667 194.3755,8.05166667 194.3105,7.991 C194.2455,7.93033333 194.165333,7.9 194.07,7.9 L194.07,7.9 L188.857,7.9 C188.744333,7.9 188.646833,7.93466667 188.5645,8.004 C188.482167,8.07333333 188.436667,8.16866667 188.428,8.29 L188.428,8.29 L187.96,12.827 C187.96,12.905 187.988167,12.9721667 188.0445,13.0285 C188.100833,13.0848333 188.168,13.113 188.246,13.113 L188.246,13.113 L189.949,13.113 C190.035667,13.113 190.152667,13.0566667 190.3,12.944 C190.438667,12.84 190.575167,12.7598333 190.7095,12.7035 C190.843833,12.6471667 191.023667,12.619 191.249,12.619 C191.647667,12.619 191.974833,12.7403333 192.2305,12.983 C192.486167,13.2256667 192.614,13.5376667 192.614,13.919 C192.614,14.3436667 192.481833,14.6751667 192.2175,14.9135 C191.953167,15.1518333 191.630333,15.271 191.249,15.271 C190.607667,15.271 190.17,14.9806667 189.936,14.4 C189.858,14.2353333 189.719333,14.153 189.52,14.153 L189.52,14.153 L187.778,14.153 C187.7,14.153 187.635,14.179 187.583,14.231 C187.531,14.283 187.505,14.348 187.505,14.426 C187.522333,14.9113333 187.676167,15.362 187.9665,15.778 C188.256833,16.194 188.679333,16.5255 189.234,16.7725 C189.788667,17.0195 190.456,17.143 191.236,17.143 Z" id="#004165" fill="#FFFFFF" fill-rule="nonzero"></path>
            <circle id="Oval" fill="#006298" cx="226" cy="12" r="12"></circle>
            <path d="M246.938,16.493 C247.024667,16.493 247.094,16.467 247.146,16.415 C247.198,16.363 247.232667,16.298 247.25,16.22 L247.25,16.22 L247.432,14.959 L248.758,14.959 L248.576,16.207 C248.567333,16.285 248.591167,16.3521667 248.6475,16.4085 C248.703833,16.4648333 248.771,16.493 248.849,16.493 L248.849,16.493 L249.889,16.493 C249.975667,16.493 250.045,16.467 250.097,16.415 C250.149,16.363 250.183667,16.298 250.201,16.22 L250.201,16.22 L250.383,14.959 L251.696,14.959 C251.782667,14.959 251.856333,14.9286667 251.917,14.868 C251.977667,14.8073333 252.008,14.7336667 252.008,14.647 L252.008,14.647 L252.008,13.62 C252.008,13.5333333 251.977667,13.4618333 251.917,13.4055 C251.856333,13.3491667 251.782667,13.321 251.696,13.321 L251.696,13.321 L250.63,13.321 L250.877,11.657 L252.034,11.657 C252.120667,11.657 252.194333,11.6266667 252.255,11.566 C252.315667,11.5053333 252.346,11.4316667 252.346,11.345 L252.346,11.345 L252.346,10.318 C252.346,10.2313333 252.315667,10.1598333 252.255,10.1035 C252.194333,10.0471667 252.120667,10.019 252.034,10.019 L252.034,10.019 L251.111,10.019 L251.306,8.771 C251.306,8.693 251.28,8.62583333 251.228,8.5695 C251.176,8.51316667 251.111,8.485 251.033,8.485 L251.033,8.485 L249.993,8.485 C249.915,8.485 249.85,8.511 249.798,8.563 C249.746,8.615 249.711333,8.68 249.694,8.758 L249.694,8.758 L249.499,10.019 L248.16,10.019 L248.355,8.771 C248.355,8.693 248.329,8.62583333 248.277,8.5695 C248.225,8.51316667 248.16,8.485 248.082,8.485 L248.082,8.485 L247.042,8.485 C246.964,8.485 246.899,8.511 246.847,8.563 C246.795,8.615 246.760333,8.68 246.743,8.758 L246.743,8.758 L246.548,10.019 L245.222,10.019 C245.135333,10.019 245.063833,10.0471667 245.0075,10.1035 C244.951167,10.1598333 244.923,10.2313333 244.923,10.318 L244.923,10.318 L244.923,11.345 C244.923,11.4316667 244.951167,11.5053333 245.0075,11.566 C245.063833,11.6266667 245.135333,11.657 245.222,11.657 L245.222,11.657 L246.301,11.657 L246.054,13.321 L244.884,13.321 C244.797333,13.321 244.725833,13.3491667 244.6695,13.4055 C244.613167,13.4618333 244.585,13.5333333 244.585,13.62 L244.585,13.62 L244.585,14.647 C244.585,14.7336667 244.613167,14.8073333 244.6695,14.868 C244.725833,14.9286667 244.797333,14.959 244.884,14.959 L244.884,14.959 L245.807,14.959 L245.625,16.207 C245.616333,16.285 245.640167,16.3521667 245.6965,16.4085 C245.752833,16.4648333 245.82,16.493 245.898,16.493 L245.898,16.493 L246.938,16.493 Z M249.005,13.321 L247.679,13.321 L247.926,11.657 L249.252,11.657 L249.005,13.321 Z M257.325,17.13 C258.521,17.1213333 259.426667,16.8028333 260.042,16.1745 C260.657333,15.5461667 260.995333,14.7206667 261.056,13.698 C261.073333,13.23 261.082,12.814 261.082,12.45 C261.082,12.0773333 261.073333,11.6483333 261.056,11.163 C261.004,10.1576667 260.661667,9.343 260.029,8.719 C259.396333,8.095 258.495,7.77866667 257.325,7.77 C256.536333,7.77 255.869,7.9195 255.323,8.2185 C254.777,8.5175 254.363167,8.9205 254.0815,9.4275 C253.799833,9.9345 253.641667,10.513 253.607,11.163 C253.589667,11.6483333 253.581,12.0773333 253.581,12.45 C253.581,12.814 253.589667,13.23 253.607,13.698 C253.659,14.7206667 253.992667,15.5461667 254.608,16.1745 C255.223333,16.8028333 256.129,17.1213333 257.325,17.13 Z M257.325,15.245 C256.501667,15.245 256.068333,14.7076667 256.025,13.633 C256.0185,13.4445 256.014437,13.1706875 256.012812,12.8115625 L256.012812,12.0380625 C256.014437,11.6821875 256.0185,11.4165 256.025,11.241 C256.042333,10.747 256.157167,10.357 256.3695,10.071 C256.581833,9.785 256.900333,9.63766667 257.325,9.629 C257.758333,9.63766667 258.079,9.785 258.287,10.071 C258.495,10.357 258.607667,10.747 258.625,11.241 C258.642333,11.475 258.651,11.8693333 258.651,12.424 C258.651,12.9786667 258.642333,13.3816667 258.625,13.633 C258.607667,14.1443333 258.492833,14.5408333 258.2805,14.8225 C258.068167,15.1041667 257.749667,15.245 257.325,15.245 Z M266.165,17.13 C267.361,17.1213333 268.266667,16.8028333 268.882,16.1745 C269.497333,15.5461667 269.835333,14.7206667 269.896,13.698 C269.913333,13.23 269.922,12.814 269.922,12.45 C269.922,12.0773333 269.913333,11.6483333 269.896,11.163 C269.844,10.1576667 269.501667,9.343 268.869,8.719 C268.236333,8.095 267.335,7.77866667 266.165,7.77 C265.376333,7.77 264.709,7.9195 264.163,8.2185 C263.617,8.5175 263.203167,8.9205 262.9215,9.4275 C262.639833,9.9345 262.481667,10.513 262.447,11.163 C262.429667,11.6483333 262.421,12.0773333 262.421,12.45 C262.421,12.814 262.429667,13.23 262.447,13.698 C262.499,14.7206667 262.832667,15.5461667 263.448,16.1745 C264.063333,16.8028333 264.969,17.1213333 266.165,17.13 Z M266.165,15.245 C265.341667,15.245 264.908333,14.7076667 264.865,13.633 C264.8585,13.4445 264.854438,13.1706875 264.852813,12.8115625 L264.852813,12.0380625 C264.854438,11.6821875 264.8585,11.4165 264.865,11.241 C264.882333,10.747 264.997167,10.357 265.2095,10.071 C265.421833,9.785 265.740333,9.63766667 266.165,9.629 C266.598333,9.63766667 266.919,9.785 267.127,10.071 C267.335,10.357 267.447667,10.747 267.465,11.241 C267.482333,11.475 267.491,11.8693333 267.491,12.424 C267.491,12.9786667 267.482333,13.3816667 267.465,13.633 C267.447667,14.1443333 267.332833,14.5408333 267.1205,14.8225 C266.908167,15.1041667 266.589667,15.245 266.165,15.245 Z M274.901,17.13 C275.646333,17.13 276.307167,16.9826667 276.8835,16.688 C277.459833,16.3933333 277.904,15.9946667 278.216,15.492 C278.528,14.9893333 278.684,14.4346667 278.684,13.828 C278.684,13.2386667 278.528,12.71 278.216,12.242 C277.904,11.774 277.498833,11.4078333 277.0005,11.1435 C276.502167,10.8791667 275.988667,10.734 275.46,10.708 C275.304,10.708 275.174,10.721 275.07,10.747 L275.07,10.747 L276.825,8.355 C276.859667,8.303 276.877,8.24666667 276.877,8.186 C276.877,8.108 276.851,8.04083333 276.799,7.9845 C276.747,7.92816667 276.682,7.9 276.604,7.9 L276.604,7.9 L274.875,7.9 C274.762333,7.9 274.6735,7.92383333 274.6085,7.9715 C274.5435,8.01916667 274.476333,8.082 274.407,8.16 L274.407,8.16 L272.119,11.241 C271.391,12.229 271.027,13.1086667 271.027,13.88 C271.027,14.5126667 271.1895,15.076 271.5145,15.57 C271.8395,16.064 272.2945,16.4475 272.8795,16.7205 C273.4645,16.9935 274.138333,17.13 274.901,17.13 Z M274.875,15.258 C274.467667,15.258 274.125333,15.1345 273.848,14.8875 C273.570667,14.6405 273.432,14.3003333 273.432,13.867 C273.432,13.4336667 273.570667,13.0956667 273.848,12.853 C274.125333,12.6103333 274.467667,12.489 274.875,12.489 C275.282333,12.489 275.6225,12.6103333 275.8955,12.853 C276.1685,13.0956667 276.305,13.4336667 276.305,13.867 C276.305,14.3003333 276.166333,14.6405 275.889,14.8875 C275.611667,15.1345 275.273667,15.258 274.875,15.258 Z M286.601,17 C286.696333,17 286.7765,16.9696667 286.8415,16.909 C286.9065,16.8483333 286.939,16.7703333 286.939,16.675 L286.939,16.675 L286.939,15.362 C286.939,15.2666667 286.9065,15.1886667 286.8415,15.128 C286.7765,15.0673333 286.696333,15.037 286.601,15.037 L286.601,15.037 L283.26,15.037 L284.456,13.828 C285.227333,13.2473333 285.8015,12.7078333 286.1785,12.2095 C286.5555,11.7111667 286.744,11.1586667 286.744,10.552 C286.744,9.98866667 286.609667,9.49466667 286.341,9.07 C286.072333,8.64533333 285.678,8.316 285.158,8.082 C284.638,7.848 284.014,7.731 283.286,7.731 C282.592667,7.731 281.9795,7.8675 281.4465,8.1405 C280.9135,8.4135 280.501833,8.78183333 280.2115,9.2455 C279.921167,9.70916667 279.767333,10.2183333 279.75,10.773 C279.75,10.851 279.776,10.916 279.828,10.968 C279.88,11.02 279.945,11.046 280.023,11.046 L280.023,11.046 L281.648,11.046 C281.890667,11.046 282.038,10.9463333 282.09,10.747 C282.150667,10.4263333 282.276333,10.1598333 282.467,9.9475 C282.657667,9.73516667 282.930667,9.629 283.286,9.629 C283.962,9.629 284.3,9.97133333 284.3,10.656 C284.3,10.9073333 284.196,11.1716667 283.988,11.449 C283.78,11.7263333 283.472333,12.034 283.065,12.372 C282.657667,12.71 282.059667,13.1823333 281.271,13.789 L281.271,13.789 L279.919,15.115 C279.702333,15.2796667 279.594,15.492 279.594,15.752 L279.594,15.752 L279.594,16.675 C279.594,16.7703333 279.6265,16.8483333 279.6915,16.909 C279.7565,16.9696667 279.836667,17 279.932,17 L279.932,17 L286.601,17 Z M291.502,17 C291.692667,17 291.848667,16.9133333 291.97,16.74 L291.97,16.74 L294.05,13.893 C294.171333,13.7196667 294.240667,13.6243333 294.258,13.607 C294.639333,13.0783333 294.9275,12.619 295.1225,12.229 C295.3175,11.839 295.415,11.4056667 295.415,10.929 C295.415,10.3396667 295.267667,9.8045 294.973,9.3235 C294.678333,8.8425 294.242833,8.46333333 293.6665,8.186 C293.090167,7.90866667 292.403333,7.77 291.606,7.77 C290.817333,7.77 290.1435,7.92166667 289.5845,8.225 C289.0255,8.52833333 288.603,8.927 288.317,9.421 C288.031,9.915 287.888,10.448 287.888,11.02 C287.888,11.6006667 288.035333,12.1163333 288.33,12.567 C288.624667,13.0176667 289.010333,13.373 289.487,13.633 C289.963667,13.893 290.470667,14.0403333 291.008,14.075 C291.146667,14.075 291.272333,14.062 291.385,14.036 L291.385,14.036 L289.552,16.545 C289.517333,16.597 289.5,16.6533333 289.5,16.714 C289.5,16.792 289.526,16.8591667 289.578,16.9155 C289.63,16.9718333 289.695,17 289.773,17 L289.773,17 L291.502,17 Z M291.632,12.359 C291.242,12.359 290.917,12.2376667 290.657,11.995 C290.397,11.7523333 290.267,11.423 290.267,11.007 C290.267,10.591 290.394833,10.2595 290.6505,10.0125 C290.906167,9.7655 291.233333,9.642 291.632,9.642 C292.030667,9.642 292.36,9.7655 292.62,10.0125 C292.88,10.2595 293.01,10.591 293.01,11.007 C293.01,11.423 292.88,11.7523333 292.62,11.995 C292.36,12.2376667 292.030667,12.359 291.632,12.359 Z M300.238,17.13 C301.061333,17.13 301.761167,17.0043333 302.3375,16.753 C302.913833,16.5016667 303.345,16.1615 303.631,15.7325 C303.917,15.3035 304.06,14.8203333 304.06,14.283 C304.06,13.8063333 303.945167,13.3816667 303.7155,13.009 C303.485833,12.6363333 303.176,12.3546667 302.786,12.164 C303.392667,11.748 303.696,11.1456667 303.696,10.357 C303.696,9.58566667 303.4035,8.96166667 302.8185,8.485 C302.2335,8.00833333 301.373333,7.77 300.238,7.77 C299.466667,7.77 298.821,7.88266667 298.301,8.108 C297.781,8.33333333 297.393167,8.64316667 297.1375,9.0375 C296.881833,9.43183333 296.754,9.876 296.754,10.37 C296.754,10.76 296.834167,11.1066667 296.9945,11.41 C297.154833,11.7133333 297.386667,11.9646667 297.69,12.164 C297.308667,12.372 297.003167,12.6601667 296.7735,13.0285 C296.543833,13.3968333 296.429,13.8106667 296.429,14.27 C296.429,14.8073333 296.569833,15.2926667 296.8515,15.726 C297.133167,16.1593333 297.56,16.5016667 298.132,16.753 C298.704,17.0043333 299.406,17.13 300.238,17.13 Z M300.238,11.514 C299.856667,11.514 299.544667,11.4186667 299.302,11.228 C299.059333,11.0373333 298.938,10.786 298.938,10.474 C298.938,10.162 299.059333,9.91066667 299.302,9.72 C299.544667,9.52933333 299.856667,9.434 300.238,9.434 C300.619333,9.434 300.931333,9.52933333 301.174,9.72 C301.416667,9.91066667 301.538,10.162 301.538,10.474 C301.538,10.7773333 301.416667,11.0243333 301.174,11.215 C300.931333,11.4056667 300.619333,11.5053333 300.238,11.514 Z M300.238,15.466 C299.813333,15.466 299.460167,15.3576667 299.1785,15.141 C298.896833,14.9243333 298.756,14.634 298.756,14.27 C298.756,13.906 298.896833,13.6178333 299.1785,13.4055 C299.460167,13.1931667 299.813333,13.087 300.238,13.087 C300.662667,13.087 301.013667,13.1931667 301.291,13.4055 C301.568333,13.6178333 301.707,13.906 301.707,14.27 C301.707,14.634 301.568333,14.9243333 301.291,15.141 C301.013667,15.3576667 300.662667,15.466 300.238,15.466 Z" id="#006298" fill="#FFFFFF" fill-rule="nonzero"></path>
        </g>
        <line x1="185.75" y1="406.25" x2="186.5" y2="538.5" id="Line" stroke="#F8E71C" stroke-width="3" stroke-linecap="square" stroke-dasharray="1,6"></line>
        <line x1="81.3577172" y1="434.256553" x2="81.1256834" y2="481.633983" id="Line" stroke="#F8E71C" stroke-width="3" stroke-linecap="square" stroke-dasharray="1,6" transform="translate(80.875683, 457.883983) rotate(90.324925) translate(-80.875683, -457.883983) "></line>
        <rect id="Rectangle" fill="#F8E71C" x="180" y="512" width="12" height="3"></rect>
        <rect id="Rectangle" fill="#F8E71C" x="180" y="477" width="12" height="3"></rect>
        <rect id="Rectangle" fill="#F8E71C" x="180" y="532" width="12" height="3"></rect>
        <rect id="Rectangle" fill="#F8E71C" x="180" y="436" width="12" height="3"></rect>
        <rect id="Rectangle" fill="#F8E71C" x="180" y="401" width="12" height="3"></rect>
        <rect id="Rectangle" fill="#F8E71C" transform="translate(61.000000, 458.500000) rotate(90.000000) translate(-61.000000, -458.500000) " x="55" y="457" width="12" height="3"></rect>
        <rect id="Rectangle" fill="#F8E71C" transform="translate(107.000000, 458.500000) rotate(90.000000) translate(-107.000000, -458.500000) " x="101" y="457" width="12" height="3"></rect>
        <line x1="70.3651551" y1="541.117434" x2="46.0018789" y2="517.030017" id="Line" stroke="#F8E71C" stroke-width="3" stroke-linecap="square" stroke-dasharray="1,6"></line>
        <rect id="Rectangle" fill="#F8E71C" transform="translate(48.494651, 520.039195) rotate(133.000000) translate(-48.494651, -520.039195) " x="42.494651" y="518.539195" width="12" height="3"></rect>
        <rect id="Rectangle" fill="#F8E71C" transform="translate(72.629323, 542.545141) rotate(133.000000) translate(-72.629323, -542.545141) " x="66.6293231" y="541.045141" width="12" height="3"></rect>
        <rect id="Rectangle" fill="#F8E71C" x="195" y="517" width="35" height="13"></rect>
        <path d="M203.96,527 C204.048,527 204.122,526.972 204.182,526.916 C204.242,526.86 204.272,526.788 204.272,526.7 L204.272,526.7 L204.272,525.488 C204.272,525.4 204.242,525.328 204.182,525.272 C204.122,525.216 204.048,525.188 203.96,525.188 L203.96,525.188 L200.876,525.188 L201.98,524.072 C202.692,523.536 203.222,523.038 203.57,522.578 C203.918,522.118 204.092,521.608 204.092,521.048 C204.092,520.528 203.968,520.072 203.72,519.68 C203.472,519.288 203.108,518.984 202.628,518.768 C202.148,518.552 201.572,518.444 200.9,518.444 C200.26,518.444 199.694,518.57 199.202,518.822 C198.71,519.074 198.33,519.414 198.062,519.842 C197.794,520.27 197.652,520.74 197.636,521.252 C197.636,521.324 197.66,521.384 197.708,521.432 C197.756,521.48 197.816,521.504 197.888,521.504 L197.888,521.504 L199.388,521.504 C199.612,521.504 199.748,521.412 199.796,521.228 C199.852,520.932 199.968,520.686 200.144,520.49 C200.32,520.294 200.572,520.196 200.9,520.196 C201.524,520.196 201.836,520.512 201.836,521.144 C201.836,521.376 201.74,521.62 201.548,521.876 C201.356,522.132 201.072,522.416 200.696,522.728 C200.32,523.04 199.768,523.476 199.04,524.036 L199.04,524.036 L197.792,525.26 C197.592,525.412 197.492,525.608 197.492,525.848 L197.492,525.848 L197.492,526.7 C197.492,526.788 197.522,526.86 197.582,526.916 C197.642,526.972 197.716,527 197.804,527 L197.804,527 L203.96,527 Z M208.868,527.12 C209.972,527.112 210.808,526.818 211.376,526.238 C211.944,525.658 212.256,524.896 212.312,523.952 C212.328,523.52 212.336,523.136 212.336,522.8 C212.336,522.456 212.328,522.06 212.312,521.612 C212.264,520.684 211.948,519.932 211.364,519.356 C210.78,518.78 209.948,518.488 208.868,518.48 C208.14,518.48 207.524,518.618 207.02,518.894 C206.516,519.17 206.134,519.542 205.874,520.01 C205.614,520.478 205.468,521.012 205.436,521.612 C205.42,522.06 205.412,522.456 205.412,522.8 C205.412,523.136 205.42,523.52 205.436,523.952 C205.484,524.896 205.792,525.658 206.36,526.238 C206.928,526.818 207.764,527.112 208.868,527.12 Z M208.868,525.38 C208.108,525.38 207.708,524.884 207.668,523.892 C207.66,523.66 207.656,523.288 207.656,522.776 C207.656,522.264 207.66,521.9 207.668,521.684 C207.684,521.228 207.79,520.868 207.986,520.604 C208.182,520.34 208.476,520.204 208.868,520.196 C209.268,520.204 209.564,520.34 209.756,520.604 C209.948,520.868 210.052,521.228 210.068,521.684 C210.084,521.9 210.092,522.264 210.092,522.776 L210.09151,522.986857 C210.089551,523.391429 210.081714,523.693143 210.068,523.892 C210.052,524.364 209.946,524.73 209.75,524.99 C209.554,525.25 209.26,525.38 208.868,525.38 Z M215.432,529.28 C215.52,529.28 215.592,529.252 215.648,529.196 C215.704,529.14 215.732,529.068 215.732,528.98 L215.732,528.98 L215.732,526.316 C216.116,526.852 216.7,527.12 217.484,527.12 C218.26,527.12 218.872,526.87 219.32,526.37 C219.768,525.87 220.008,525.188 220.04,524.324 C220.048,524.22 220.052,524.072 220.052,523.88 C220.052,523.688 220.048,523.54 220.04,523.436 C220,522.548 219.76,521.86 219.32,521.372 C218.88,520.884 218.268,520.64 217.484,520.64 C216.676,520.64 216.056,520.924 215.624,521.492 L215.624,521.492 L215.624,521.06 C215.624,520.972 215.596,520.9 215.54,520.844 C215.484,520.788 215.412,520.76 215.324,520.76 L215.324,520.76 L213.968,520.76 C213.888,520.76 213.818,520.788 213.758,520.844 C213.698,520.9 213.668,520.972 213.668,521.06 L213.668,521.06 L213.668,528.98 C213.668,529.068 213.698,529.14 213.758,529.196 C213.818,529.252 213.888,529.28 213.968,529.28 L213.968,529.28 L215.432,529.28 Z M216.836,525.512 C216.484,525.512 216.216,525.404 216.032,525.188 C215.848,524.972 215.748,524.7 215.732,524.372 L215.732,524.372 L215.72,523.916 L215.732,523.472 C215.756,523.112 215.854,522.818 216.026,522.59 C216.198,522.362 216.468,522.248 216.836,522.248 C217.212,522.248 217.482,522.36 217.646,522.584 C217.81,522.808 217.904,523.116 217.928,523.508 C217.944,523.668 217.952,523.792 217.952,523.88 C217.952,523.968 217.944,524.092 217.928,524.252 C217.904,524.644 217.81,524.952 217.646,525.176 C217.482,525.4 217.212,525.512 216.836,525.512 Z M222.272,527 C222.352,527 222.416,526.984 222.464,526.952 C222.512,526.92 222.56,526.872 222.608,526.808 L222.608,526.808 L223.832,525.164 L225.044,526.808 C225.132,526.936 225.244,527 225.38,527 L225.38,527 L226.916,527 C226.988,527 227.05,526.974 227.102,526.922 C227.154,526.87 227.18,526.804 227.18,526.724 C227.18,526.66 227.16,526.6 227.12,526.544 L227.12,526.544 L225.08,523.796 L226.952,521.216 C226.992,521.168 227.012,521.104 227.012,521.024 C227.012,520.952 226.986,520.89 226.934,520.838 C226.882,520.786 226.82,520.76 226.748,520.76 L226.748,520.76 L225.344,520.76 C225.248,520.76 225.176,520.78 225.128,520.82 C225.08,520.86 225.032,520.912 224.984,520.976 L224.984,520.976 L223.88,522.5 L222.764,520.964 C222.676,520.828 222.56,520.76 222.416,520.76 L222.416,520.76 L220.952,520.76 C220.88,520.76 220.816,520.786 220.76,520.838 C220.704,520.89 220.676,520.952 220.676,521.024 C220.676,521.088 220.7,521.152 220.748,521.216 L220.748,521.216 L222.572,523.796 L220.568,526.544 C220.528,526.6 220.508,526.66 220.508,526.724 C220.508,526.804 220.534,526.87 220.586,526.922 C220.638,526.974 220.7,527 220.772,527 L220.772,527 L222.272,527 Z" id="20px" fill="#222222" fill-rule="nonzero"></path>
        <rect id="Rectangle" fill="#F8E71C" x="170" y="490" width="35" height="13"></rect>
        <path d="M175.9,500.12 C176.572,500.12 177.176,500.012 177.712,499.796 C178.248,499.58 178.668,499.272 178.972,498.872 C179.276,498.472 179.428,498.004 179.428,497.468 C179.428,496.732 179.214,496.166 178.786,495.77 C178.358,495.374 177.776,495.128 177.04,495.032 L177.04,495.032 L176.956,495.008 L178.78,493.316 C178.908,493.204 178.972,493.072 178.972,492.92 L178.972,492.92 L178.972,491.9 C178.972,491.812 178.942,491.74 178.882,491.684 C178.822,491.628 178.748,491.6 178.66,491.6 L178.66,491.6 L173.14,491.6 C173.06,491.6 172.99,491.628 172.93,491.684 C172.87,491.74 172.84,491.812 172.84,491.9 L172.84,491.9 L172.84,493.028 C172.84,493.108 172.87,493.178 172.93,493.238 C172.99,493.298 173.06,493.328 173.14,493.328 L173.14,493.328 L176.476,493.328 L174.508,494.996 C174.38,495.092 174.316,495.228 174.316,495.404 L174.316,495.404 L174.316,496.076 C174.316,496.156 174.346,496.226 174.406,496.286 C174.466,496.346 174.536,496.376 174.616,496.376 L174.616,496.376 L175.948,496.376 C176.78,496.376 177.196,496.696 177.196,497.336 C177.196,497.664 177.082,497.922 176.854,498.11 C176.626,498.298 176.308,498.392 175.9,498.392 C175.188,498.392 174.752,498.184 174.592,497.768 C174.544,497.68 174.492,497.62 174.436,497.588 C174.38,497.556 174.308,497.54 174.22,497.54 L174.22,497.54 L172.648,497.54 C172.576,497.54 172.514,497.564 172.462,497.612 C172.41,497.66 172.384,497.72 172.384,497.792 C172.4,498.152 172.534,498.51 172.786,498.866 C173.038,499.222 173.426,499.52 173.95,499.76 C174.474,500 175.124,500.12 175.9,500.12 Z M183.748,500.132 C184.46,500.132 185.078,500.008 185.602,499.76 C186.126,499.512 186.528,499.166 186.808,498.722 C187.088,498.278 187.228,497.772 187.228,497.204 C187.228,496.668 187.094,496.192 186.826,495.776 C186.558,495.36 186.2,495.038 185.752,494.81 C185.304,494.582 184.828,494.468 184.324,494.468 C183.94,494.468 183.628,494.502 183.388,494.57 C183.148,494.638 182.928,494.74 182.728,494.876 L182.728,494.876 L182.884,493.328 L186.364,493.328 C186.452,493.328 186.526,493.3 186.586,493.244 C186.646,493.188 186.676,493.116 186.676,493.028 L186.676,493.028 L186.676,491.9 C186.676,491.812 186.646,491.74 186.586,491.684 C186.526,491.628 186.452,491.6 186.364,491.6 L186.364,491.6 L181.552,491.6 C181.448,491.6 181.358,491.632 181.282,491.696 C181.206,491.76 181.164,491.848 181.156,491.96 L181.156,491.96 L180.724,496.148 C180.724,496.22 180.75,496.282 180.802,496.334 C180.854,496.386 180.916,496.412 180.988,496.412 L180.988,496.412 L182.56,496.412 C182.64,496.412 182.748,496.36 182.884,496.256 C183.012,496.16 183.138,496.086 183.262,496.034 C183.386,495.982 183.552,495.956 183.76,495.956 C184.128,495.956 184.43,496.068 184.666,496.292 C184.902,496.516 185.02,496.804 185.02,497.156 C185.02,497.548 184.898,497.854 184.654,498.074 C184.41,498.294 184.112,498.404 183.76,498.404 C183.168,498.404 182.764,498.136 182.548,497.6 C182.476,497.448 182.348,497.372 182.164,497.372 L182.164,497.372 L180.556,497.372 C180.484,497.372 180.424,497.396 180.376,497.444 C180.328,497.492 180.304,497.552 180.304,497.624 C180.32,498.072 180.462,498.488 180.73,498.872 C180.998,499.256 181.388,499.562 181.9,499.79 C182.412,500.018 183.028,500.132 183.748,500.132 Z M190.132,502.28 C190.22,502.28 190.292,502.252 190.348,502.196 C190.404,502.14 190.432,502.068 190.432,501.98 L190.432,501.98 L190.432,499.316 C190.816,499.852 191.4,500.12 192.184,500.12 C192.96,500.12 193.572,499.87 194.02,499.37 C194.468,498.87 194.708,498.188 194.74,497.324 C194.748,497.22 194.752,497.072 194.752,496.88 C194.752,496.688 194.748,496.54 194.74,496.436 C194.7,495.548 194.46,494.86 194.02,494.372 C193.58,493.884 192.968,493.64 192.184,493.64 C191.376,493.64 190.756,493.924 190.324,494.492 L190.324,494.492 L190.324,494.06 C190.324,493.972 190.296,493.9 190.24,493.844 C190.184,493.788 190.112,493.76 190.024,493.76 L190.024,493.76 L188.668,493.76 C188.588,493.76 188.518,493.788 188.458,493.844 C188.398,493.9 188.368,493.972 188.368,494.06 L188.368,494.06 L188.368,501.98 C188.368,502.068 188.398,502.14 188.458,502.196 C188.518,502.252 188.588,502.28 188.668,502.28 L188.668,502.28 L190.132,502.28 Z M191.536,498.512 C191.184,498.512 190.916,498.404 190.732,498.188 C190.548,497.972 190.448,497.7 190.432,497.372 L190.432,497.372 L190.42,496.916 L190.432,496.472 C190.456,496.112 190.554,495.818 190.726,495.59 C190.898,495.362 191.168,495.248 191.536,495.248 C191.912,495.248 192.182,495.36 192.346,495.584 C192.51,495.808 192.604,496.116 192.628,496.508 C192.644,496.668 192.652,496.792 192.652,496.88 C192.652,496.968 192.644,497.092 192.628,497.252 C192.604,497.644 192.51,497.952 192.346,498.176 C192.182,498.4 191.912,498.512 191.536,498.512 Z M196.972,500 C197.052,500 197.116,499.984 197.164,499.952 C197.212,499.92 197.26,499.872 197.308,499.808 L197.308,499.808 L198.532,498.164 L199.744,499.808 C199.832,499.936 199.944,500 200.08,500 L200.08,500 L201.616,500 C201.688,500 201.75,499.974 201.802,499.922 C201.854,499.87 201.88,499.804 201.88,499.724 C201.88,499.66 201.86,499.6 201.82,499.544 L201.82,499.544 L199.78,496.796 L201.652,494.216 C201.692,494.168 201.712,494.104 201.712,494.024 C201.712,493.952 201.686,493.89 201.634,493.838 C201.582,493.786 201.52,493.76 201.448,493.76 L201.448,493.76 L200.044,493.76 C199.948,493.76 199.876,493.78 199.828,493.82 C199.78,493.86 199.732,493.912 199.684,493.976 L199.684,493.976 L198.58,495.5 L197.464,493.964 C197.376,493.828 197.26,493.76 197.116,493.76 L197.116,493.76 L195.652,493.76 C195.58,493.76 195.516,493.786 195.46,493.838 C195.404,493.89 195.376,493.952 195.376,494.024 C195.376,494.088 195.4,494.152 195.448,494.216 L195.448,494.216 L197.272,496.796 L195.268,499.544 C195.228,499.6 195.208,499.66 195.208,499.724 C195.208,499.804 195.234,499.87 195.286,499.922 C195.338,499.974 195.4,500 195.472,500 L195.472,500 L196.972,500 Z" id="35px" fill="#222222" fill-rule="nonzero"></path>
        <rect id="Rectangle" fill="#F8E71C" x="169" y="452" width="35" height="13"></rect>
        <path d="M177.156,462 C177.244,462 177.316,461.97 177.372,461.91 C177.428,461.85 177.456,461.78 177.456,461.7 L177.456,461.7 L177.456,460.344 L178.524,460.344 C178.612,460.344 178.684,460.316 178.74,460.26 C178.796,460.204 178.824,460.132 178.824,460.044 L178.824,460.044 L178.824,458.856 C178.824,458.776 178.796,458.706 178.74,458.646 C178.684,458.586 178.608,458.556 178.512,458.556 L178.512,458.556 L177.456,458.556 L177.456,453.9 C177.456,453.812 177.428,453.74 177.372,453.684 C177.316,453.628 177.244,453.6 177.156,453.6 L177.156,453.6 L175.404,453.6 C175.22,453.6 175.072,453.668 174.96,453.804 L174.96,453.804 L171.468,458.532 C171.38,458.66 171.336,458.784 171.336,458.904 L171.336,458.904 L171.336,460.044 C171.336,460.132 171.364,460.204 171.42,460.26 C171.476,460.316 171.548,460.344 171.636,460.344 L171.636,460.344 L175.368,460.344 L175.368,461.7 C175.368,461.78 175.398,461.85 175.458,461.91 C175.518,461.97 175.588,462 175.668,462 L175.668,462 L177.156,462 Z M175.416,458.64 L173.4,458.64 L175.416,455.808 L175.416,458.64 Z M183.264,462.12 C184.368,462.112 185.204,461.818 185.772,461.238 C186.34,460.658 186.652,459.896 186.708,458.952 C186.724,458.52 186.732,458.136 186.732,457.8 C186.732,457.456 186.724,457.06 186.708,456.612 C186.66,455.684 186.344,454.932 185.76,454.356 C185.176,453.78 184.344,453.488 183.264,453.48 C182.536,453.48 181.92,453.618 181.416,453.894 C180.912,454.17 180.53,454.542 180.27,455.01 C180.01,455.478 179.864,456.012 179.832,456.612 C179.816,457.06 179.808,457.456 179.808,457.8 C179.808,458.136 179.816,458.52 179.832,458.952 C179.88,459.896 180.188,460.658 180.756,461.238 C181.324,461.818 182.16,462.112 183.264,462.12 Z M183.264,460.38 C182.504,460.38 182.104,459.884 182.064,458.892 C182.058286,458.726286 182.054612,458.489143 182.05298,458.180571 L182.05298,457.373388 C182.054612,457.068082 182.058286,456.838286 182.064,456.684 C182.08,456.228 182.186,455.868 182.382,455.604 C182.578,455.34 182.872,455.204 183.264,455.196 C183.664,455.204 183.96,455.34 184.152,455.604 C184.344,455.868 184.448,456.228 184.464,456.684 C184.48,456.9 184.488,457.264 184.488,457.776 C184.488,458.288 184.48,458.66 184.464,458.892 C184.448,459.364 184.342,459.73 184.146,459.99 C183.95,460.25 183.656,460.38 183.264,460.38 Z M189.828,464.28 C189.916,464.28 189.988,464.252 190.044,464.196 C190.1,464.14 190.128,464.068 190.128,463.98 L190.128,463.98 L190.128,461.316 C190.512,461.852 191.096,462.12 191.88,462.12 C192.656,462.12 193.268,461.87 193.716,461.37 C194.164,460.87 194.404,460.188 194.436,459.324 C194.444,459.22 194.448,459.072 194.448,458.88 C194.448,458.688 194.444,458.54 194.436,458.436 C194.396,457.548 194.156,456.86 193.716,456.372 C193.276,455.884 192.664,455.64 191.88,455.64 C191.072,455.64 190.452,455.924 190.02,456.492 L190.02,456.492 L190.02,456.06 C190.02,455.972 189.992,455.9 189.936,455.844 C189.88,455.788 189.808,455.76 189.72,455.76 L189.72,455.76 L188.364,455.76 C188.284,455.76 188.214,455.788 188.154,455.844 C188.094,455.9 188.064,455.972 188.064,456.06 L188.064,456.06 L188.064,463.98 C188.064,464.068 188.094,464.14 188.154,464.196 C188.214,464.252 188.284,464.28 188.364,464.28 L188.364,464.28 L189.828,464.28 Z M191.232,460.512 C190.88,460.512 190.612,460.404 190.428,460.188 C190.244,459.972 190.144,459.7 190.128,459.372 L190.128,459.372 L190.116,458.916 L190.128,458.472 C190.152,458.112 190.25,457.818 190.422,457.59 C190.594,457.362 190.864,457.248 191.232,457.248 C191.608,457.248 191.878,457.36 192.042,457.584 C192.206,457.808 192.3,458.116 192.324,458.508 C192.34,458.668 192.348,458.792 192.348,458.88 C192.348,458.968 192.34,459.092 192.324,459.252 C192.3,459.644 192.206,459.952 192.042,460.176 C191.878,460.4 191.608,460.512 191.232,460.512 Z M196.668,462 C196.748,462 196.812,461.984 196.86,461.952 C196.908,461.92 196.956,461.872 197.004,461.808 L197.004,461.808 L198.228,460.164 L199.44,461.808 C199.528,461.936 199.64,462 199.776,462 L199.776,462 L201.312,462 C201.384,462 201.446,461.974 201.498,461.922 C201.55,461.87 201.576,461.804 201.576,461.724 C201.576,461.66 201.556,461.6 201.516,461.544 L201.516,461.544 L199.476,458.796 L201.348,456.216 C201.388,456.168 201.408,456.104 201.408,456.024 C201.408,455.952 201.382,455.89 201.33,455.838 C201.278,455.786 201.216,455.76 201.144,455.76 L201.144,455.76 L199.74,455.76 C199.644,455.76 199.572,455.78 199.524,455.82 C199.476,455.86 199.428,455.912 199.38,455.976 L199.38,455.976 L198.276,457.5 L197.16,455.964 C197.072,455.828 196.956,455.76 196.812,455.76 L196.812,455.76 L195.348,455.76 C195.276,455.76 195.212,455.786 195.156,455.838 C195.1,455.89 195.072,455.952 195.072,456.024 C195.072,456.088 195.096,456.152 195.144,456.216 L195.144,456.216 L196.968,458.796 L194.964,461.544 C194.924,461.6 194.904,461.66 194.904,461.724 C194.904,461.804 194.93,461.87 194.982,461.922 C195.034,461.974 195.096,462 195.168,462 L195.168,462 L196.668,462 Z" id="40px" fill="#222222" fill-rule="nonzero"></path>
        <rect id="Rectangle" fill="#F8E71C" x="168" y="415" width="35" height="13"></rect>
        <path d="M173.9,425.12 C174.572,425.12 175.176,425.012 175.712,424.796 C176.248,424.58 176.668,424.272 176.972,423.872 C177.276,423.472 177.428,423.004 177.428,422.468 C177.428,421.732 177.214,421.166 176.786,420.77 C176.358,420.374 175.776,420.128 175.04,420.032 L175.04,420.032 L174.956,420.008 L176.78,418.316 C176.908,418.204 176.972,418.072 176.972,417.92 L176.972,417.92 L176.972,416.9 C176.972,416.812 176.942,416.74 176.882,416.684 C176.822,416.628 176.748,416.6 176.66,416.6 L176.66,416.6 L171.14,416.6 C171.06,416.6 170.99,416.628 170.93,416.684 C170.87,416.74 170.84,416.812 170.84,416.9 L170.84,416.9 L170.84,418.028 C170.84,418.108 170.87,418.178 170.93,418.238 C170.99,418.298 171.06,418.328 171.14,418.328 L171.14,418.328 L174.476,418.328 L172.508,419.996 C172.38,420.092 172.316,420.228 172.316,420.404 L172.316,420.404 L172.316,421.076 C172.316,421.156 172.346,421.226 172.406,421.286 C172.466,421.346 172.536,421.376 172.616,421.376 L172.616,421.376 L173.948,421.376 C174.78,421.376 175.196,421.696 175.196,422.336 C175.196,422.664 175.082,422.922 174.854,423.11 C174.626,423.298 174.308,423.392 173.9,423.392 C173.188,423.392 172.752,423.184 172.592,422.768 C172.544,422.68 172.492,422.62 172.436,422.588 C172.38,422.556 172.308,422.54 172.22,422.54 L172.22,422.54 L170.648,422.54 C170.576,422.54 170.514,422.564 170.462,422.612 C170.41,422.66 170.384,422.72 170.384,422.792 C170.4,423.152 170.534,423.51 170.786,423.866 C171.038,424.222 171.426,424.52 171.95,424.76 C172.474,425 173.124,425.12 173.9,425.12 Z M181.748,425.132 C182.46,425.132 183.078,425.008 183.602,424.76 C184.126,424.512 184.528,424.166 184.808,423.722 C185.088,423.278 185.228,422.772 185.228,422.204 C185.228,421.668 185.094,421.192 184.826,420.776 C184.558,420.36 184.2,420.038 183.752,419.81 C183.304,419.582 182.828,419.468 182.324,419.468 C181.94,419.468 181.628,419.502 181.388,419.57 C181.148,419.638 180.928,419.74 180.728,419.876 L180.728,419.876 L180.884,418.328 L184.364,418.328 C184.452,418.328 184.526,418.3 184.586,418.244 C184.646,418.188 184.676,418.116 184.676,418.028 L184.676,418.028 L184.676,416.9 C184.676,416.812 184.646,416.74 184.586,416.684 C184.526,416.628 184.452,416.6 184.364,416.6 L184.364,416.6 L179.552,416.6 C179.448,416.6 179.358,416.632 179.282,416.696 C179.206,416.76 179.164,416.848 179.156,416.96 L179.156,416.96 L178.724,421.148 C178.724,421.22 178.75,421.282 178.802,421.334 C178.854,421.386 178.916,421.412 178.988,421.412 L178.988,421.412 L180.56,421.412 C180.64,421.412 180.748,421.36 180.884,421.256 C181.012,421.16 181.138,421.086 181.262,421.034 C181.386,420.982 181.552,420.956 181.76,420.956 C182.128,420.956 182.43,421.068 182.666,421.292 C182.902,421.516 183.02,421.804 183.02,422.156 C183.02,422.548 182.898,422.854 182.654,423.074 C182.41,423.294 182.112,423.404 181.76,423.404 C181.168,423.404 180.764,423.136 180.548,422.6 C180.476,422.448 180.348,422.372 180.164,422.372 L180.164,422.372 L178.556,422.372 C178.484,422.372 178.424,422.396 178.376,422.444 C178.328,422.492 178.304,422.552 178.304,422.624 C178.32,423.072 178.462,423.488 178.73,423.872 C178.998,424.256 179.388,424.562 179.9,424.79 C180.412,425.018 181.028,425.132 181.748,425.132 Z M188.132,427.28 C188.22,427.28 188.292,427.252 188.348,427.196 C188.404,427.14 188.432,427.068 188.432,426.98 L188.432,426.98 L188.432,424.316 C188.816,424.852 189.4,425.12 190.184,425.12 C190.96,425.12 191.572,424.87 192.02,424.37 C192.468,423.87 192.708,423.188 192.74,422.324 C192.748,422.22 192.752,422.072 192.752,421.88 C192.752,421.688 192.748,421.54 192.74,421.436 C192.7,420.548 192.46,419.86 192.02,419.372 C191.58,418.884 190.968,418.64 190.184,418.64 C189.376,418.64 188.756,418.924 188.324,419.492 L188.324,419.492 L188.324,419.06 C188.324,418.972 188.296,418.9 188.24,418.844 C188.184,418.788 188.112,418.76 188.024,418.76 L188.024,418.76 L186.668,418.76 C186.588,418.76 186.518,418.788 186.458,418.844 C186.398,418.9 186.368,418.972 186.368,419.06 L186.368,419.06 L186.368,426.98 C186.368,427.068 186.398,427.14 186.458,427.196 C186.518,427.252 186.588,427.28 186.668,427.28 L186.668,427.28 L188.132,427.28 Z M189.536,423.512 C189.184,423.512 188.916,423.404 188.732,423.188 C188.548,422.972 188.448,422.7 188.432,422.372 L188.432,422.372 L188.42,421.916 L188.432,421.472 C188.456,421.112 188.554,420.818 188.726,420.59 C188.898,420.362 189.168,420.248 189.536,420.248 C189.912,420.248 190.182,420.36 190.346,420.584 C190.51,420.808 190.604,421.116 190.628,421.508 C190.644,421.668 190.652,421.792 190.652,421.88 C190.652,421.968 190.644,422.092 190.628,422.252 C190.604,422.644 190.51,422.952 190.346,423.176 C190.182,423.4 189.912,423.512 189.536,423.512 Z M194.972,425 C195.052,425 195.116,424.984 195.164,424.952 C195.212,424.92 195.26,424.872 195.308,424.808 L195.308,424.808 L196.532,423.164 L197.744,424.808 C197.832,424.936 197.944,425 198.08,425 L198.08,425 L199.616,425 C199.688,425 199.75,424.974 199.802,424.922 C199.854,424.87 199.88,424.804 199.88,424.724 C199.88,424.66 199.86,424.6 199.82,424.544 L199.82,424.544 L197.78,421.796 L199.652,419.216 C199.692,419.168 199.712,419.104 199.712,419.024 C199.712,418.952 199.686,418.89 199.634,418.838 C199.582,418.786 199.52,418.76 199.448,418.76 L199.448,418.76 L198.044,418.76 C197.948,418.76 197.876,418.78 197.828,418.82 C197.78,418.86 197.732,418.912 197.684,418.976 L197.684,418.976 L196.58,420.5 L195.464,418.964 C195.376,418.828 195.26,418.76 195.116,418.76 L195.116,418.76 L193.652,418.76 C193.58,418.76 193.516,418.786 193.46,418.838 C193.404,418.89 193.376,418.952 193.376,419.024 C193.376,419.088 193.4,419.152 193.448,419.216 L193.448,419.216 L195.272,421.796 L193.268,424.544 C193.228,424.6 193.208,424.66 193.208,424.724 C193.208,424.804 193.234,424.87 193.286,424.922 C193.338,424.974 193.4,425 193.472,425 L193.472,425 L194.972,425 Z" id="35px" fill="#222222" fill-rule="nonzero"></path>
        <rect id="Rectangle" fill="#F8E71C" transform="translate(84.500000, 459.500000) rotate(270.000000) translate(-84.500000, -459.500000) " x="67" y="453" width="35" height="13"></rect>
        <path d="M75.476,463 C75.564,463 75.636,462.97 75.692,462.91 C75.748,462.85 75.776,462.78 75.776,462.7 L75.776,462.7 L75.776,461.344 L76.844,461.344 C76.932,461.344 77.004,461.316 77.06,461.26 C77.116,461.204 77.144,461.132 77.144,461.044 L77.144,461.044 L77.144,459.856 C77.144,459.776 77.116,459.706 77.06,459.646 C77.004,459.586 76.928,459.556 76.832,459.556 L76.832,459.556 L75.776,459.556 L75.776,454.9 C75.776,454.812 75.748,454.74 75.692,454.684 C75.636,454.628 75.564,454.6 75.476,454.6 L75.476,454.6 L73.724,454.6 C73.54,454.6 73.392,454.668 73.28,454.804 L73.28,454.804 L69.788,459.532 C69.7,459.66 69.656,459.784 69.656,459.904 L69.656,459.904 L69.656,461.044 C69.656,461.132 69.684,461.204 69.74,461.26 C69.796,461.316 69.868,461.344 69.956,461.344 L69.956,461.344 L73.688,461.344 L73.688,462.7 C73.688,462.78 73.718,462.85 73.778,462.91 C73.838,462.97 73.908,463 73.988,463 L73.988,463 L75.476,463 Z M73.736,459.64 L71.72,459.64 L73.736,456.808 L73.736,459.64 Z M81.356,463.132 C82.068,463.132 82.686,463.008 83.21,462.76 C83.734,462.512 84.136,462.166 84.416,461.722 C84.696,461.278 84.836,460.772 84.836,460.204 C84.836,459.668 84.702,459.192 84.434,458.776 C84.166,458.36 83.808,458.038 83.36,457.81 C82.912,457.582 82.436,457.468 81.932,457.468 C81.548,457.468 81.236,457.502 80.996,457.57 C80.756,457.638 80.536,457.74 80.336,457.876 L80.336,457.876 L80.492,456.328 L83.972,456.328 C84.06,456.328 84.134,456.3 84.194,456.244 C84.254,456.188 84.284,456.116 84.284,456.028 L84.284,456.028 L84.284,454.9 C84.284,454.812 84.254,454.74 84.194,454.684 C84.134,454.628 84.06,454.6 83.972,454.6 L83.972,454.6 L79.16,454.6 C79.056,454.6 78.966,454.632 78.89,454.696 C78.814,454.76 78.772,454.848 78.764,454.96 L78.764,454.96 L78.332,459.148 C78.332,459.22 78.358,459.282 78.41,459.334 C78.462,459.386 78.524,459.412 78.596,459.412 L78.596,459.412 L80.168,459.412 C80.248,459.412 80.356,459.36 80.492,459.256 C80.62,459.16 80.746,459.086 80.87,459.034 C80.994,458.982 81.16,458.956 81.368,458.956 C81.736,458.956 82.038,459.068 82.274,459.292 C82.51,459.516 82.628,459.804 82.628,460.156 C82.628,460.548 82.506,460.854 82.262,461.074 C82.018,461.294 81.72,461.404 81.368,461.404 C80.776,461.404 80.372,461.136 80.156,460.6 C80.084,460.448 79.956,460.372 79.772,460.372 L79.772,460.372 L78.164,460.372 C78.092,460.372 78.032,460.396 77.984,460.444 C77.936,460.492 77.912,460.552 77.912,460.624 C77.928,461.072 78.07,461.488 78.338,461.872 C78.606,462.256 78.996,462.562 79.508,462.79 C80.02,463.018 80.636,463.132 81.356,463.132 Z M87.74,465.28 C87.828,465.28 87.9,465.252 87.956,465.196 C88.012,465.14 88.04,465.068 88.04,464.98 L88.04,464.98 L88.04,462.316 C88.424,462.852 89.008,463.12 89.792,463.12 C90.568,463.12 91.18,462.87 91.628,462.37 C92.076,461.87 92.316,461.188 92.348,460.324 C92.356,460.22 92.36,460.072 92.36,459.88 C92.36,459.688 92.356,459.54 92.348,459.436 C92.308,458.548 92.068,457.86 91.628,457.372 C91.188,456.884 90.576,456.64 89.792,456.64 C88.984,456.64 88.364,456.924 87.932,457.492 L87.932,457.492 L87.932,457.06 C87.932,456.972 87.904,456.9 87.848,456.844 C87.792,456.788 87.72,456.76 87.632,456.76 L87.632,456.76 L86.276,456.76 C86.196,456.76 86.126,456.788 86.066,456.844 C86.006,456.9 85.976,456.972 85.976,457.06 L85.976,457.06 L85.976,464.98 C85.976,465.068 86.006,465.14 86.066,465.196 C86.126,465.252 86.196,465.28 86.276,465.28 L86.276,465.28 L87.74,465.28 Z M89.144,461.512 C88.792,461.512 88.524,461.404 88.34,461.188 C88.156,460.972 88.056,460.7 88.04,460.372 L88.04,460.372 L88.028,459.916 L88.04,459.472 C88.064,459.112 88.162,458.818 88.334,458.59 C88.506,458.362 88.776,458.248 89.144,458.248 C89.52,458.248 89.79,458.36 89.954,458.584 C90.118,458.808 90.212,459.116 90.236,459.508 C90.252,459.668 90.26,459.792 90.26,459.88 C90.26,459.968 90.252,460.092 90.236,460.252 C90.212,460.644 90.118,460.952 89.954,461.176 C89.79,461.4 89.52,461.512 89.144,461.512 Z M94.58,463 C94.66,463 94.724,462.984 94.772,462.952 C94.82,462.92 94.868,462.872 94.916,462.808 L94.916,462.808 L96.14,461.164 L97.352,462.808 C97.44,462.936 97.552,463 97.688,463 L97.688,463 L99.224,463 C99.296,463 99.358,462.974 99.41,462.922 C99.462,462.87 99.488,462.804 99.488,462.724 C99.488,462.66 99.468,462.6 99.428,462.544 L99.428,462.544 L97.388,459.796 L99.26,457.216 C99.3,457.168 99.32,457.104 99.32,457.024 C99.32,456.952 99.294,456.89 99.242,456.838 C99.19,456.786 99.128,456.76 99.056,456.76 L99.056,456.76 L97.652,456.76 C97.556,456.76 97.484,456.78 97.436,456.82 C97.388,456.86 97.34,456.912 97.292,456.976 L97.292,456.976 L96.188,458.5 L95.072,456.964 C94.984,456.828 94.868,456.76 94.724,456.76 L94.724,456.76 L93.26,456.76 C93.188,456.76 93.124,456.786 93.068,456.838 C93.012,456.89 92.984,456.952 92.984,457.024 C92.984,457.088 93.008,457.152 93.056,457.216 L93.056,457.216 L94.88,459.796 L92.876,462.544 C92.836,462.6 92.816,462.66 92.816,462.724 C92.816,462.804 92.842,462.87 92.894,462.922 C92.946,462.974 93.008,463 93.08,463 L93.08,463 L94.58,463 Z" id="45px" fill="#222222" fill-rule="nonzero" transform="translate(84.572000, 459.940000) rotate(270.000000) translate(-84.572000, -459.940000) "></path>
        <rect id="Rectangle" fill="#F8E71C" x="75" y="545" width="120" height="13"></rect>
        <path d="M86.952,555 C87.04,555 87.114,554.972 87.174,554.916 C87.234,554.86 87.264,554.788 87.264,554.7 L87.264,554.7 L87.264,553.488 C87.264,553.4 87.234,553.328 87.174,553.272 C87.114,553.216 87.04,553.188 86.952,553.188 L86.952,553.188 L83.868,553.188 L84.972,552.072 C85.684,551.536 86.214,551.038 86.562,550.578 C86.91,550.118 87.084,549.608 87.084,549.048 C87.084,548.528 86.96,548.072 86.712,547.68 C86.464,547.288 86.1,546.984 85.62,546.768 C85.14,546.552 84.564,546.444 83.892,546.444 C83.252,546.444 82.686,546.57 82.194,546.822 C81.702,547.074 81.322,547.414 81.054,547.842 C80.786,548.27 80.644,548.74 80.628,549.252 C80.628,549.324 80.652,549.384 80.7,549.432 C80.748,549.48 80.808,549.504 80.88,549.504 L80.88,549.504 L82.38,549.504 C82.604,549.504 82.74,549.412 82.788,549.228 C82.844,548.932 82.96,548.686 83.136,548.49 C83.312,548.294 83.564,548.196 83.892,548.196 C84.516,548.196 84.828,548.512 84.828,549.144 C84.828,549.376 84.732,549.62 84.54,549.876 C84.348,550.132 84.064,550.416 83.688,550.728 C83.312,551.04 82.76,551.476 82.032,552.036 L82.032,552.036 L80.784,553.26 C80.584,553.412 80.484,553.608 80.484,553.848 L80.484,553.848 L80.484,554.7 C80.484,554.788 80.514,554.86 80.574,554.916 C80.634,554.972 80.708,555 80.796,555 L80.796,555 L86.952,555 Z M91.86,555.12 C92.964,555.112 93.8,554.818 94.368,554.238 C94.936,553.658 95.248,552.896 95.304,551.952 C95.32,551.52 95.328,551.136 95.328,550.8 C95.328,550.456 95.32,550.06 95.304,549.612 C95.256,548.684 94.94,547.932 94.356,547.356 C93.772,546.78 92.94,546.488 91.86,546.48 C91.132,546.48 90.516,546.618 90.012,546.894 C89.508,547.17 89.126,547.542 88.866,548.01 C88.606,548.478 88.46,549.012 88.428,549.612 C88.412,550.06 88.404,550.456 88.404,550.8 C88.404,551.136 88.412,551.52 88.428,551.952 C88.476,552.896 88.784,553.658 89.352,554.238 C89.92,554.818 90.756,555.112 91.86,555.12 Z M91.86,553.38 C91.1,553.38 90.7,552.884 90.66,551.892 C90.652,551.66 90.648,551.288 90.648,550.776 C90.648,550.264 90.652,549.9 90.66,549.684 C90.676,549.228 90.782,548.868 90.978,548.604 C91.174,548.34 91.468,548.204 91.86,548.196 C92.26,548.204 92.556,548.34 92.748,548.604 C92.94,548.868 93.044,549.228 93.06,549.684 C93.076,549.9 93.084,550.264 93.084,550.776 L93.0835102,550.986857 C93.081551,551.391429 93.0737143,551.693143 93.06,551.892 C93.044,552.364 92.938,552.73 92.742,552.99 C92.546,553.25 92.252,553.38 91.86,553.38 Z M98.424,557.28 C98.512,557.28 98.584,557.252 98.64,557.196 C98.696,557.14 98.724,557.068 98.724,556.98 L98.724,556.98 L98.724,554.316 C99.108,554.852 99.692,555.12 100.476,555.12 C101.252,555.12 101.864,554.87 102.312,554.37 C102.76,553.87 103,553.188 103.032,552.324 C103.04,552.22 103.044,552.072 103.044,551.88 L103.04325,551.74425 C103.04175,551.61675 103.038,551.514 103.032,551.436 C102.992,550.548 102.752,549.86 102.312,549.372 C101.872,548.884 101.26,548.64 100.476,548.64 C99.668,548.64 99.048,548.924 98.616,549.492 L98.616,549.492 L98.616,549.06 C98.616,548.972 98.588,548.9 98.532,548.844 C98.476,548.788 98.404,548.76 98.316,548.76 L98.316,548.76 L96.96,548.76 C96.88,548.76 96.81,548.788 96.75,548.844 C96.69,548.9 96.66,548.972 96.66,549.06 L96.66,549.06 L96.66,556.98 C96.66,557.068 96.69,557.14 96.75,557.196 C96.81,557.252 96.88,557.28 96.96,557.28 L96.96,557.28 L98.424,557.28 Z M99.828,553.512 C99.476,553.512 99.208,553.404 99.024,553.188 C98.84,552.972 98.74,552.7 98.724,552.372 L98.724,552.372 L98.712,551.916 L98.724,551.472 C98.748,551.112 98.846,550.818 99.018,550.59 C99.19,550.362 99.46,550.248 99.828,550.248 C100.204,550.248 100.474,550.36 100.638,550.584 C100.802,550.808 100.896,551.116 100.92,551.508 C100.936,551.668 100.944,551.792 100.944,551.88 C100.944,551.968 100.936,552.092 100.92,552.252 C100.896,552.644 100.802,552.952 100.638,553.176 C100.474,553.4 100.204,553.512 99.828,553.512 Z M105.264,555 C105.344,555 105.408,554.984 105.456,554.952 C105.504,554.92 105.552,554.872 105.6,554.808 L105.6,554.808 L106.824,553.164 L108.036,554.808 C108.124,554.936 108.236,555 108.372,555 L108.372,555 L109.908,555 C109.98,555 110.042,554.974 110.094,554.922 C110.146,554.87 110.172,554.804 110.172,554.724 C110.172,554.66 110.152,554.6 110.112,554.544 L110.112,554.544 L108.072,551.796 L109.944,549.216 C109.984,549.168 110.004,549.104 110.004,549.024 C110.004,548.952 109.978,548.89 109.926,548.838 C109.874,548.786 109.812,548.76 109.74,548.76 L109.74,548.76 L108.336,548.76 C108.24,548.76 108.168,548.78 108.12,548.82 C108.072,548.86 108.024,548.912 107.976,548.976 L107.976,548.976 L106.872,550.5 L105.756,548.964 C105.668,548.828 105.552,548.76 105.408,548.76 L105.408,548.76 L103.944,548.76 C103.872,548.76 103.808,548.786 103.752,548.838 C103.696,548.89 103.668,548.952 103.668,549.024 C103.668,549.088 103.692,549.152 103.74,549.216 L103.74,549.216 L105.564,551.796 L103.56,554.544 C103.52,554.6 103.5,554.66 103.5,554.724 C103.5,554.804 103.526,554.87 103.578,554.922 C103.63,554.974 103.692,555 103.764,555 L103.764,555 L105.264,555 Z M115.956,555.12 C116.764,555.12 117.388,554.852 117.828,554.316 L117.828,554.316 L117.828,554.7 C117.828,554.78 117.858,554.85 117.918,554.91 C117.978,554.97 118.048,555 118.128,555 L118.128,555 L119.484,555 C119.572,555 119.644,554.97 119.7,554.91 C119.756,554.85 119.784,554.78 119.784,554.7 L119.784,554.7 L119.784,546.78 C119.784,546.692 119.756,546.62 119.7,546.564 C119.644,546.508 119.572,546.48 119.484,546.48 L119.484,546.48 L118.02,546.48 C117.932,546.48 117.86,546.508 117.804,546.564 C117.748,546.62 117.72,546.692 117.72,546.78 L117.72,546.78 L117.72,549.348 C117.272,548.876 116.684,548.64 115.956,548.64 C115.18,548.64 114.57,548.892 114.126,549.396 C113.682,549.9 113.444,550.584 113.412,551.448 L113.412,551.448 L113.4,551.88 L113.412,552.3 C113.452,553.196 113.69,553.89 114.126,554.382 C114.562,554.874 115.172,555.12 115.956,555.12 Z M116.616,553.512 C116.24,553.512 115.97,553.4 115.806,553.176 C115.642,552.952 115.548,552.644 115.524,552.252 C115.516,552.172 115.512,552.048 115.512,551.88 C115.512,551.712 115.516,551.588 115.524,551.508 C115.548,551.116 115.642,550.808 115.806,550.584 C115.97,550.36 116.24,550.248 116.616,550.248 C116.968,550.248 117.236,550.356 117.42,550.572 C117.604,550.788 117.704,551.06 117.72,551.388 C117.728,551.492 117.732,551.64 117.732,551.832 L117.73125,551.973 C117.72975,552.105 117.726,552.21 117.72,552.288 C117.696,552.648 117.596,552.942 117.42,553.17 C117.244,553.398 116.976,553.512 116.616,553.512 Z M124.08,555.12 C124.688,555.12 125.216,555.02 125.664,554.82 C126.112,554.62 126.454,554.384 126.69,554.112 C126.926,553.84 127.044,553.6 127.044,553.392 C127.044,553.32 127.018,553.262 126.966,553.218 C126.914,553.174 126.852,553.152 126.78,553.152 L126.78,553.152 L125.292,553.152 C125.196,553.152 125.126,553.162 125.082,553.182 C125.038,553.202 124.98,553.256 124.908,553.344 C124.804,553.464 124.688,553.566 124.56,553.65 C124.432,553.734 124.268,553.776 124.068,553.776 C123.748,553.776 123.504,553.66 123.336,553.428 C123.168,553.196 123.076,552.892 123.06,552.516 L123.06,552.516 L123.06,552.432 L126.9,552.432 C126.988,552.432 127.06,552.402 127.116,552.342 C127.172,552.282 127.2,552.212 127.2,552.132 L127.2,552.132 L127.2,551.844 C127.2,551.22 127.082,550.668 126.846,550.188 C126.61,549.708 126.258,549.33 125.79,549.054 C125.322,548.778 124.748,548.64 124.068,548.64 C123.132,548.64 122.386,548.906 121.83,549.438 C121.274,549.97 120.98,550.708 120.948,551.652 L120.948,551.652 L120.948,552.072 C120.972,553.064 121.26,553.82 121.812,554.34 C122.364,554.86 123.12,555.12 124.08,555.12 Z M125.088,551.244 L123.06,551.244 L123.06,551.22 C123.06,550.828 123.15,550.518 123.33,550.29 C123.51,550.062 123.756,549.948 124.068,549.948 C124.388,549.948 124.638,550.062 124.818,550.29 C124.998,550.518 125.088,550.828 125.088,551.22 L125.088,551.22 L125.088,551.244 Z M133.752,555.12 C134.456,555.12 135.044,554.99 135.516,554.73 C135.988,554.47 136.334,554.168 136.554,553.824 C136.774,553.48 136.884,553.18 136.884,552.924 C136.884,552.844 136.854,552.778 136.794,552.726 C136.734,552.674 136.664,552.648 136.584,552.648 L136.584,552.648 L135.06,552.648 C134.972,552.648 134.904,552.668 134.856,552.708 C134.808,552.748 134.764,552.808 134.724,552.888 C134.636,553.136 134.52,553.312 134.376,553.416 C134.232,553.52 134.036,553.572 133.788,553.572 C133.468,553.572 133.222,553.47 133.05,553.266 C132.878,553.062 132.784,552.744 132.768,552.312 L132.768,552.312 L132.756,551.916 L132.768,551.46 C132.792,550.612 133.132,550.188 133.788,550.188 C134.02,550.188 134.21,550.24 134.358,550.344 C134.506,550.448 134.628,550.624 134.724,550.872 C134.764,550.952 134.808,551.012 134.856,551.052 C134.904,551.092 134.972,551.112 135.06,551.112 L135.06,551.112 L136.584,551.112 C136.672,551.112 136.746,551.082 136.806,551.022 C136.866,550.962 136.892,550.892 136.884,550.812 C136.868,550.532 136.746,550.222 136.518,549.882 C136.29,549.542 135.942,549.25 135.474,549.006 C135.006,548.762 134.432,548.64 133.752,548.64 C132.848,548.64 132.114,548.884 131.55,549.372 C130.986,549.86 130.688,550.536 130.656,551.4 L130.656,551.4 L130.644,551.892 L130.656,552.372 C130.696,553.236 130.996,553.91 131.556,554.394 C132.116,554.878 132.848,555.12 133.752,555.12 Z M140.256,555.12 C141.168,555.12 141.832,554.828 142.248,554.244 L142.248,554.244 L142.248,554.7 C142.248,554.78 142.278,554.85 142.338,554.91 C142.398,554.97 142.468,555 142.548,555 L142.548,555 L143.94,555 C144.028,555 144.1,554.97 144.156,554.91 C144.212,554.85 144.24,554.78 144.24,554.7 L144.24,554.7 L144.24,549.06 C144.24,548.972 144.212,548.9 144.156,548.844 C144.1,548.788 144.028,548.76 143.94,548.76 L143.94,548.76 L142.44,548.76 C142.36,548.76 142.29,548.788 142.23,548.844 C142.17,548.9 142.14,548.972 142.14,549.06 L142.14,549.06 L142.14,552.336 C142.14,552.704 142.044,552.992 141.852,553.2 C141.66,553.408 141.396,553.512 141.06,553.512 C140.364,553.512 140.016,553.12 140.016,552.336 L140.016,552.336 L140.016,549.06 C140.016,548.972 139.986,548.9 139.926,548.844 C139.866,548.788 139.792,548.76 139.704,548.76 L139.704,548.76 L138.204,548.76 C138.116,548.76 138.044,548.788 137.988,548.844 C137.932,548.9 137.904,548.972 137.904,549.06 L137.904,549.06 L137.904,552.408 C137.904,553.264 138.12,553.93 138.552,554.406 C138.984,554.882 139.552,555.12 140.256,555.12 Z M147.444,555 C147.532,555 147.606,554.972 147.666,554.916 C147.726,554.86 147.756,554.788 147.756,554.7 L147.756,554.7 L147.756,551.628 C147.756,551.3 147.846,551.046 148.026,550.866 C148.206,550.686 148.46,550.596 148.788,550.596 L148.788,550.596 L149.952,550.596 C150.04,550.596 150.112,550.566 150.168,550.506 C150.224,550.446 150.252,550.376 150.252,550.296 L150.252,550.296 L150.252,549.06 C150.252,548.972 150.224,548.9 150.168,548.844 C150.112,548.788 150.04,548.76 149.952,548.76 L149.952,548.76 L149.424,548.76 C148.68,548.76 148.088,549.02 147.648,549.54 L147.648,549.54 L147.648,549.06 C147.648,548.98 147.618,548.91 147.558,548.85 C147.498,548.79 147.424,548.76 147.336,548.76 L147.336,548.76 L145.956,548.76 C145.868,548.76 145.796,548.788 145.74,548.844 C145.684,548.9 145.656,548.972 145.656,549.06 L145.656,549.06 L145.656,554.7 C145.656,554.788 145.684,554.86 145.74,554.916 C145.796,554.972 145.868,555 145.956,555 L145.956,555 L147.444,555 Z M154.596,555 C154.708,555 154.796,554.974 154.86,554.922 C154.924,554.87 154.976,554.796 155.016,554.7 L155.016,554.7 L157.284,549.132 L157.308,549.024 C157.308,548.952 157.28,548.89 157.224,548.838 C157.168,548.786 157.104,548.76 157.032,548.76 L157.032,548.76 L155.676,548.76 C155.5,548.76 155.384,548.844 155.328,549.012 L155.328,549.012 L153.96,552.696 L152.604,549.012 C152.548,548.844 152.432,548.76 152.256,548.76 L152.256,548.76 L150.9,548.76 C150.82,548.76 150.754,548.786 150.702,548.838 C150.65,548.89 150.624,548.952 150.624,549.024 L150.624,549.024 L150.648,549.132 L152.916,554.7 C152.956,554.796 153.006,554.87 153.066,554.922 C153.126,554.974 153.212,555 153.324,555 L153.324,555 L154.596,555 Z M159.84,555.12 C160.272,555.12 160.646,555.042 160.962,554.886 C161.278,554.73 161.524,554.528 161.7,554.28 L161.7,554.28 L161.7,554.7 C161.7,554.78 161.73,554.85 161.79,554.91 C161.85,554.97 161.92,555 162,555 L162,555 L163.392,555 C163.48,555 163.552,554.97 163.608,554.91 C163.664,554.85 163.692,554.78 163.692,554.7 L163.692,554.7 L163.692,551.052 C163.692,550.316 163.456,549.73 162.984,549.294 C162.512,548.858 161.784,548.64 160.8,548.64 C160.184,548.64 159.666,548.736 159.246,548.928 C158.826,549.12 158.514,549.348 158.31,549.612 C158.106,549.876 158,550.116 157.992,550.332 C157.984,550.404 158.006,550.466 158.058,550.518 C158.11,550.57 158.176,550.596 158.256,550.596 L158.256,550.596 L159.564,550.596 C159.628,550.596 159.672,550.564 159.696,550.5 C159.752,550.468 159.836,550.404 159.948,550.308 C160.076,550.196 160.2,550.108 160.32,550.044 C160.44,549.98 160.592,549.948 160.776,549.948 C161.08,549.948 161.296,550.02 161.424,550.164 C161.552,550.308 161.616,550.532 161.616,550.836 L161.616,550.836 L161.616,551.004 L160.116,551.232 C159.324,551.36 158.702,551.592 158.25,551.928 C157.798,552.264 157.572,552.708 157.572,553.26 C157.572,553.604 157.67,553.918 157.866,554.202 C158.062,554.486 158.334,554.71 158.682,554.874 C159.03,555.038 159.416,555.12 159.84,555.12 Z M160.404,553.752 C160.164,553.752 159.96,553.694 159.792,553.578 C159.624,553.462 159.54,553.304 159.54,553.104 C159.54,552.728 159.9,552.476 160.62,552.348 L160.62,552.348 L161.64,552.168 L161.64,552.336 C161.64,552.8 161.526,553.152 161.298,553.392 C161.07,553.632 160.772,553.752 160.404,553.752 Z M169.308,555 C169.396,555 169.468,554.97 169.524,554.91 C169.58,554.85 169.608,554.78 169.608,554.7 L169.608,554.7 L169.608,553.656 C169.608,553.568 169.58,553.496 169.524,553.44 C169.468,553.384 169.396,553.356 169.308,553.356 L169.308,553.356 L168.384,553.356 C167.928,553.356 167.7,553.06 167.7,552.468 L167.7,552.468 L167.7,550.332 L169.2,550.332 C169.288,550.332 169.362,550.304 169.422,550.248 C169.482,550.192 169.512,550.12 169.512,550.032 L169.512,550.032 L169.512,549.06 C169.512,548.972 169.482,548.9 169.422,548.844 C169.362,548.788 169.288,548.76 169.2,548.76 L169.2,548.76 L167.7,548.76 L167.7,546.78 C167.7,546.692 167.672,546.62 167.616,546.564 C167.56,546.508 167.488,546.48 167.4,546.48 L167.4,546.48 L166.008,546.48 C165.928,546.48 165.858,546.508 165.798,546.564 C165.738,546.62 165.708,546.692 165.708,546.78 L165.708,546.78 L165.708,548.76 L164.772,548.76 C164.684,548.76 164.61,548.788 164.55,548.844 C164.49,548.9 164.46,548.972 164.46,549.06 L164.46,549.06 L164.46,550.032 C164.46,550.12 164.49,550.192 164.55,550.248 C164.61,550.304 164.684,550.332 164.772,550.332 L164.772,550.332 L165.708,550.332 L165.708,552.636 C165.708,554.212 166.536,555 168.192,555 L168.192,555 L169.308,555 Z M172.896,555.12 C173.808,555.12 174.472,554.828 174.888,554.244 L174.888,554.244 L174.888,554.7 C174.888,554.78 174.918,554.85 174.978,554.91 C175.038,554.97 175.108,555 175.188,555 L175.188,555 L176.58,555 C176.668,555 176.74,554.97 176.796,554.91 C176.852,554.85 176.88,554.78 176.88,554.7 L176.88,554.7 L176.88,549.06 C176.88,548.972 176.852,548.9 176.796,548.844 C176.74,548.788 176.668,548.76 176.58,548.76 L176.58,548.76 L175.08,548.76 C175,548.76 174.93,548.788 174.87,548.844 C174.81,548.9 174.78,548.972 174.78,549.06 L174.78,549.06 L174.78,552.336 C174.78,552.704 174.684,552.992 174.492,553.2 C174.3,553.408 174.036,553.512 173.7,553.512 C173.004,553.512 172.656,553.12 172.656,552.336 L172.656,552.336 L172.656,549.06 C172.656,548.972 172.626,548.9 172.566,548.844 C172.506,548.788 172.432,548.76 172.344,548.76 L172.344,548.76 L170.844,548.76 C170.756,548.76 170.684,548.788 170.628,548.844 C170.572,548.9 170.544,548.972 170.544,549.06 L170.544,549.06 L170.544,552.408 C170.544,553.264 170.76,553.93 171.192,554.406 C171.624,554.882 172.192,555.12 172.896,555.12 Z M180.084,555 C180.172,555 180.246,554.972 180.306,554.916 C180.366,554.86 180.396,554.788 180.396,554.7 L180.396,554.7 L180.396,551.628 C180.396,551.3 180.486,551.046 180.666,550.866 C180.846,550.686 181.1,550.596 181.428,550.596 L181.428,550.596 L182.592,550.596 C182.68,550.596 182.752,550.566 182.808,550.506 C182.864,550.446 182.892,550.376 182.892,550.296 L182.892,550.296 L182.892,549.06 C182.892,548.972 182.864,548.9 182.808,548.844 C182.752,548.788 182.68,548.76 182.592,548.76 L182.592,548.76 L182.064,548.76 C181.32,548.76 180.728,549.02 180.288,549.54 L180.288,549.54 L180.288,549.06 C180.288,548.98 180.258,548.91 180.198,548.85 C180.138,548.79 180.064,548.76 179.976,548.76 L179.976,548.76 L178.596,548.76 C178.508,548.76 178.436,548.788 178.38,548.844 C178.324,548.9 178.296,548.972 178.296,549.06 L178.296,549.06 L178.296,554.7 C178.296,554.788 178.324,554.86 178.38,554.916 C178.436,554.972 178.508,555 178.596,555 L178.596,555 L180.084,555 Z M185.508,555.12 C185.94,555.12 186.314,555.042 186.63,554.886 C186.946,554.73 187.192,554.528 187.368,554.28 L187.368,554.28 L187.368,554.7 C187.368,554.78 187.398,554.85 187.458,554.91 C187.518,554.97 187.588,555 187.668,555 L187.668,555 L189.06,555 C189.148,555 189.22,554.97 189.276,554.91 C189.332,554.85 189.36,554.78 189.36,554.7 L189.36,554.7 L189.36,551.052 C189.36,550.316 189.124,549.73 188.652,549.294 C188.18,548.858 187.452,548.64 186.468,548.64 C185.852,548.64 185.334,548.736 184.914,548.928 C184.494,549.12 184.182,549.348 183.978,549.612 C183.774,549.876 183.668,550.116 183.66,550.332 C183.652,550.404 183.674,550.466 183.726,550.518 C183.778,550.57 183.844,550.596 183.924,550.596 L183.924,550.596 L185.232,550.596 C185.296,550.596 185.34,550.564 185.364,550.5 C185.42,550.468 185.504,550.404 185.616,550.308 C185.744,550.196 185.868,550.108 185.988,550.044 C186.108,549.98 186.26,549.948 186.444,549.948 C186.748,549.948 186.964,550.02 187.092,550.164 C187.22,550.308 187.284,550.532 187.284,550.836 L187.284,550.836 L187.284,551.004 L185.784,551.232 C184.992,551.36 184.37,551.592 183.918,551.928 C183.466,552.264 183.24,552.708 183.24,553.26 C183.24,553.604 183.338,553.918 183.534,554.202 C183.73,554.486 184.002,554.71 184.35,554.874 C184.698,555.038 185.084,555.12 185.508,555.12 Z M186.072,553.752 C185.832,553.752 185.628,553.694 185.46,553.578 C185.292,553.462 185.208,553.304 185.208,553.104 C185.208,552.728 185.568,552.476 186.288,552.348 L186.288,552.348 L187.308,552.168 L187.308,552.336 C187.308,552.8 187.194,553.152 186.966,553.392 C186.738,553.632 186.44,553.752 186.072,553.752 Z" id="20pxdecurvatura" fill="#222222" fill-rule="nonzero"></path>
        <line x1="275.487319" y1="434.256553" x2="275.255285" y2="481.633983" id="Line" stroke="#F8E71C" stroke-width="3" stroke-linecap="square" stroke-dasharray="1,6" transform="translate(275.005285, 457.883983) rotate(90.324925) translate(-275.005285, -457.883983) "></line>
        <rect id="Rectangle" fill="#F8E71C" transform="translate(255.129602, 458.500000) rotate(90.000000) translate(-255.129602, -458.500000) " x="249.129602" y="457" width="12" height="3"></rect>
        <rect id="Rectangle" fill="#F8E71C" transform="translate(301.129602, 458.500000) rotate(90.000000) translate(-301.129602, -458.500000) " x="295.129602" y="457" width="12" height="3"></rect>
        <line x1="178.374965" y1="267.945061" x2="179.253709" y2="511.18974" id="Line" stroke="#F8E71C" stroke-width="3" stroke-linecap="square" stroke-dasharray="1,6" transform="translate(179.003709, 389.439740) rotate(90.324925) translate(-179.003709, -389.439740) "></line>
        <rect id="Rectangle" fill="#F8E71C" transform="translate(61.129602, 389.500000) rotate(90.000000) translate(-61.129602, -389.500000) " x="55.1296017" y="388" width="12" height="3"></rect>
        <rect id="Rectangle" fill="#F8E71C" transform="translate(301.129602, 389.500000) rotate(90.000000) translate(-301.129602, -389.500000) " x="295.129602" y="388" width="12" height="3"></rect>
        <rect id="Rectangle" fill="#F8E71C" x="164" y="383" width="44" height="13"></rect>
        <path d="M173.706,393 C173.794,393 173.868,392.972 173.928,392.916 C173.988,392.86 174.018,392.788 174.018,392.7 L174.018,392.7 L174.018,391.488 C174.018,391.4 173.988,391.328 173.928,391.272 C173.868,391.216 173.794,391.188 173.706,391.188 L173.706,391.188 L170.622,391.188 L171.726,390.072 C172.438,389.536 172.968,389.038 173.316,388.578 C173.664,388.118 173.838,387.608 173.838,387.048 C173.838,386.528 173.714,386.072 173.466,385.68 C173.218,385.288 172.854,384.984 172.374,384.768 C171.894,384.552 171.318,384.444 170.646,384.444 C170.006,384.444 169.44,384.57 168.948,384.822 C168.456,385.074 168.076,385.414 167.808,385.842 C167.54,386.27 167.398,386.74 167.382,387.252 C167.382,387.324 167.406,387.384 167.454,387.432 C167.502,387.48 167.562,387.504 167.634,387.504 L167.634,387.504 L169.134,387.504 C169.358,387.504 169.494,387.412 169.542,387.228 C169.598,386.932 169.714,386.686 169.89,386.49 C170.066,386.294 170.318,386.196 170.646,386.196 C171.27,386.196 171.582,386.512 171.582,387.144 C171.582,387.376 171.486,387.62 171.294,387.876 C171.102,388.132 170.818,388.416 170.442,388.728 C170.066,389.04 169.514,389.476 168.786,390.036 L168.786,390.036 L167.538,391.26 C167.338,391.412 167.238,391.608 167.238,391.848 L167.238,391.848 L167.238,392.7 C167.238,392.788 167.268,392.86 167.328,392.916 C167.388,392.972 167.462,393 167.55,393 L167.55,393 L173.706,393 Z M180.642,393 C180.73,393 180.802,392.97 180.858,392.91 C180.914,392.85 180.942,392.78 180.942,392.7 L180.942,392.7 L180.942,391.344 L182.01,391.344 C182.098,391.344 182.17,391.316 182.226,391.26 C182.282,391.204 182.31,391.132 182.31,391.044 L182.31,391.044 L182.31,389.856 C182.31,389.776 182.282,389.706 182.226,389.646 C182.17,389.586 182.094,389.556 181.998,389.556 L181.998,389.556 L180.942,389.556 L180.942,384.9 C180.942,384.812 180.914,384.74 180.858,384.684 C180.802,384.628 180.73,384.6 180.642,384.6 L180.642,384.6 L178.89,384.6 C178.706,384.6 178.558,384.668 178.446,384.804 L178.446,384.804 L174.954,389.532 C174.866,389.66 174.822,389.784 174.822,389.904 L174.822,389.904 L174.822,391.044 C174.822,391.132 174.85,391.204 174.906,391.26 C174.962,391.316 175.034,391.344 175.122,391.344 L175.122,391.344 L178.854,391.344 L178.854,392.7 C178.854,392.78 178.884,392.85 178.944,392.91 C179.004,392.97 179.074,393 179.154,393 L179.154,393 L180.642,393 Z M178.902,389.64 L176.886,389.64 L178.902,386.808 L178.902,389.64 Z M186.75,393.12 C187.854,393.112 188.69,392.818 189.258,392.238 C189.826,391.658 190.138,390.896 190.194,389.952 C190.21,389.52 190.218,389.136 190.218,388.8 C190.218,388.456 190.21,388.06 190.194,387.612 C190.146,386.684 189.83,385.932 189.246,385.356 C188.662,384.78 187.83,384.488 186.75,384.48 C186.022,384.48 185.406,384.618 184.902,384.894 C184.398,385.17 184.016,385.542 183.756,386.01 C183.496,386.478 183.35,387.012 183.318,387.612 C183.302,388.06 183.294,388.456 183.294,388.8 C183.294,389.136 183.302,389.52 183.318,389.952 C183.366,390.896 183.674,391.658 184.242,392.238 C184.81,392.818 185.646,393.112 186.75,393.12 Z M186.75,391.38 C185.99,391.38 185.59,390.884 185.55,389.892 C185.544286,389.726286 185.540612,389.489143 185.53898,389.180571 L185.53898,388.373388 C185.540612,388.068082 185.544286,387.838286 185.55,387.684 C185.566,387.228 185.672,386.868 185.868,386.604 C186.064,386.34 186.358,386.204 186.75,386.196 C187.15,386.204 187.446,386.34 187.638,386.604 C187.83,386.868 187.934,387.228 187.95,387.684 C187.966,387.9 187.974,388.264 187.974,388.776 C187.974,389.288 187.966,389.66 187.95,389.892 C187.934,390.364 187.828,390.73 187.632,390.99 C187.436,391.25 187.142,391.38 186.75,391.38 Z M193.314,395.28 C193.402,395.28 193.474,395.252 193.53,395.196 C193.586,395.14 193.614,395.068 193.614,394.98 L193.614,394.98 L193.614,392.316 C193.998,392.852 194.582,393.12 195.366,393.12 C196.142,393.12 196.754,392.87 197.202,392.37 C197.65,391.87 197.89,391.188 197.922,390.324 C197.93,390.22 197.934,390.072 197.934,389.88 C197.934,389.688 197.93,389.54 197.922,389.436 C197.882,388.548 197.642,387.86 197.202,387.372 C196.762,386.884 196.15,386.64 195.366,386.64 C194.558,386.64 193.938,386.924 193.506,387.492 L193.506,387.492 L193.506,387.06 C193.506,386.972 193.478,386.9 193.422,386.844 C193.366,386.788 193.294,386.76 193.206,386.76 L193.206,386.76 L191.85,386.76 C191.77,386.76 191.7,386.788 191.64,386.844 C191.58,386.9 191.55,386.972 191.55,387.06 L191.55,387.06 L191.55,394.98 C191.55,395.068 191.58,395.14 191.64,395.196 C191.7,395.252 191.77,395.28 191.85,395.28 L191.85,395.28 L193.314,395.28 Z M194.718,391.512 C194.366,391.512 194.098,391.404 193.914,391.188 C193.73,390.972 193.63,390.7 193.614,390.372 L193.614,390.372 L193.602,389.916 L193.614,389.472 C193.638,389.112 193.736,388.818 193.908,388.59 C194.08,388.362 194.35,388.248 194.718,388.248 C195.094,388.248 195.364,388.36 195.528,388.584 C195.692,388.808 195.786,389.116 195.81,389.508 C195.826,389.668 195.834,389.792 195.834,389.88 C195.834,389.968 195.826,390.092 195.81,390.252 C195.786,390.644 195.692,390.952 195.528,391.176 C195.364,391.4 195.094,391.512 194.718,391.512 Z M200.154,393 C200.234,393 200.298,392.984 200.346,392.952 C200.394,392.92 200.442,392.872 200.49,392.808 L200.49,392.808 L201.714,391.164 L202.926,392.808 C203.014,392.936 203.126,393 203.262,393 L203.262,393 L204.798,393 C204.87,393 204.932,392.974 204.984,392.922 C205.036,392.87 205.062,392.804 205.062,392.724 C205.062,392.66 205.042,392.6 205.002,392.544 L205.002,392.544 L202.962,389.796 L204.834,387.216 C204.874,387.168 204.894,387.104 204.894,387.024 C204.894,386.952 204.868,386.89 204.816,386.838 C204.764,386.786 204.702,386.76 204.63,386.76 L204.63,386.76 L203.226,386.76 C203.13,386.76 203.058,386.78 203.01,386.82 C202.962,386.86 202.914,386.912 202.866,386.976 L202.866,386.976 L201.762,388.5 L200.646,386.964 C200.558,386.828 200.442,386.76 200.298,386.76 L200.298,386.76 L198.834,386.76 C198.762,386.76 198.698,386.786 198.642,386.838 C198.586,386.89 198.558,386.952 198.558,387.024 C198.558,387.088 198.582,387.152 198.63,387.216 L198.63,387.216 L200.454,389.796 L198.45,392.544 C198.41,392.6 198.39,392.66 198.39,392.724 C198.39,392.804 198.416,392.87 198.468,392.922 C198.52,392.974 198.582,393 198.654,393 L198.654,393 L200.154,393 Z" id="240px" fill="#222222" fill-rule="nonzero"></path>
        <rect id="Rectangle" fill="#F8E71C" transform="translate(277.500000, 459.500000) rotate(270.000000) translate(-277.500000, -459.500000) " x="260" y="453" width="35" height="13"></rect>
        <path d="M268.476,463 C268.564,463 268.636,462.97 268.692,462.91 C268.748,462.85 268.776,462.78 268.776,462.7 L268.776,462.7 L268.776,461.344 L269.844,461.344 C269.932,461.344 270.004,461.316 270.06,461.26 C270.116,461.204 270.144,461.132 270.144,461.044 L270.144,461.044 L270.144,459.856 C270.144,459.776 270.116,459.706 270.06,459.646 C270.004,459.586 269.928,459.556 269.832,459.556 L269.832,459.556 L268.776,459.556 L268.776,454.9 C268.776,454.812 268.748,454.74 268.692,454.684 C268.636,454.628 268.564,454.6 268.476,454.6 L268.476,454.6 L266.724,454.6 C266.54,454.6 266.392,454.668 266.28,454.804 L266.28,454.804 L262.788,459.532 C262.7,459.66 262.656,459.784 262.656,459.904 L262.656,459.904 L262.656,461.044 C262.656,461.132 262.684,461.204 262.74,461.26 C262.796,461.316 262.868,461.344 262.956,461.344 L262.956,461.344 L266.688,461.344 L266.688,462.7 C266.688,462.78 266.718,462.85 266.778,462.91 C266.838,462.97 266.908,463 266.988,463 L266.988,463 L268.476,463 Z M266.736,459.64 L264.72,459.64 L266.736,456.808 L266.736,459.64 Z M274.356,463.132 C275.068,463.132 275.686,463.008 276.21,462.76 C276.734,462.512 277.136,462.166 277.416,461.722 C277.696,461.278 277.836,460.772 277.836,460.204 C277.836,459.668 277.702,459.192 277.434,458.776 C277.166,458.36 276.808,458.038 276.36,457.81 C275.912,457.582 275.436,457.468 274.932,457.468 C274.548,457.468 274.236,457.502 273.996,457.57 C273.756,457.638 273.536,457.74 273.336,457.876 L273.336,457.876 L273.492,456.328 L276.972,456.328 C277.06,456.328 277.134,456.3 277.194,456.244 C277.254,456.188 277.284,456.116 277.284,456.028 L277.284,456.028 L277.284,454.9 C277.284,454.812 277.254,454.74 277.194,454.684 C277.134,454.628 277.06,454.6 276.972,454.6 L276.972,454.6 L272.16,454.6 C272.056,454.6 271.966,454.632 271.89,454.696 C271.814,454.76 271.772,454.848 271.764,454.96 L271.764,454.96 L271.332,459.148 C271.332,459.22 271.358,459.282 271.41,459.334 C271.462,459.386 271.524,459.412 271.596,459.412 L271.596,459.412 L273.168,459.412 C273.248,459.412 273.356,459.36 273.492,459.256 C273.62,459.16 273.746,459.086 273.87,459.034 C273.994,458.982 274.16,458.956 274.368,458.956 C274.736,458.956 275.038,459.068 275.274,459.292 C275.51,459.516 275.628,459.804 275.628,460.156 C275.628,460.548 275.506,460.854 275.262,461.074 C275.018,461.294 274.72,461.404 274.368,461.404 C273.776,461.404 273.372,461.136 273.156,460.6 C273.084,460.448 272.956,460.372 272.772,460.372 L272.772,460.372 L271.164,460.372 C271.092,460.372 271.032,460.396 270.984,460.444 C270.936,460.492 270.912,460.552 270.912,460.624 C270.928,461.072 271.07,461.488 271.338,461.872 C271.606,462.256 271.996,462.562 272.508,462.79 C273.02,463.018 273.636,463.132 274.356,463.132 Z M280.74,465.28 C280.828,465.28 280.9,465.252 280.956,465.196 C281.012,465.14 281.04,465.068 281.04,464.98 L281.04,464.98 L281.04,462.316 C281.424,462.852 282.008,463.12 282.792,463.12 C283.568,463.12 284.18,462.87 284.628,462.37 C285.076,461.87 285.316,461.188 285.348,460.324 C285.356,460.22 285.36,460.072 285.36,459.88 C285.36,459.688 285.356,459.54 285.348,459.436 C285.308,458.548 285.068,457.86 284.628,457.372 C284.188,456.884 283.576,456.64 282.792,456.64 C281.984,456.64 281.364,456.924 280.932,457.492 L280.932,457.492 L280.932,457.06 C280.932,456.972 280.904,456.9 280.848,456.844 C280.792,456.788 280.72,456.76 280.632,456.76 L280.632,456.76 L279.276,456.76 C279.196,456.76 279.126,456.788 279.066,456.844 C279.006,456.9 278.976,456.972 278.976,457.06 L278.976,457.06 L278.976,464.98 C278.976,465.068 279.006,465.14 279.066,465.196 C279.126,465.252 279.196,465.28 279.276,465.28 L279.276,465.28 L280.74,465.28 Z M282.144,461.512 C281.792,461.512 281.524,461.404 281.34,461.188 C281.156,460.972 281.056,460.7 281.04,460.372 L281.04,460.372 L281.028,459.916 L281.04,459.472 C281.064,459.112 281.162,458.818 281.334,458.59 C281.506,458.362 281.776,458.248 282.144,458.248 C282.52,458.248 282.79,458.36 282.954,458.584 C283.118,458.808 283.212,459.116 283.236,459.508 C283.252,459.668 283.26,459.792 283.26,459.88 C283.26,459.968 283.252,460.092 283.236,460.252 C283.212,460.644 283.118,460.952 282.954,461.176 C282.79,461.4 282.52,461.512 282.144,461.512 Z M287.58,463 C287.66,463 287.724,462.984 287.772,462.952 C287.82,462.92 287.868,462.872 287.916,462.808 L287.916,462.808 L289.14,461.164 L290.352,462.808 C290.44,462.936 290.552,463 290.688,463 L290.688,463 L292.224,463 C292.296,463 292.358,462.974 292.41,462.922 C292.462,462.87 292.488,462.804 292.488,462.724 C292.488,462.66 292.468,462.6 292.428,462.544 L292.428,462.544 L290.388,459.796 L292.26,457.216 C292.3,457.168 292.32,457.104 292.32,457.024 C292.32,456.952 292.294,456.89 292.242,456.838 C292.19,456.786 292.128,456.76 292.056,456.76 L292.056,456.76 L290.652,456.76 C290.556,456.76 290.484,456.78 290.436,456.82 C290.388,456.86 290.34,456.912 290.292,456.976 L290.292,456.976 L289.188,458.5 L288.072,456.964 C287.984,456.828 287.868,456.76 287.724,456.76 L287.724,456.76 L286.26,456.76 C286.188,456.76 286.124,456.786 286.068,456.838 C286.012,456.89 285.984,456.952 285.984,457.024 C285.984,457.088 286.008,457.152 286.056,457.216 L286.056,457.216 L287.88,459.796 L285.876,462.544 C285.836,462.6 285.816,462.66 285.816,462.724 C285.816,462.804 285.842,462.87 285.894,462.922 C285.946,462.974 286.008,463 286.08,463 L286.08,463 L287.58,463 Z" id="45px" fill="#222222" fill-rule="nonzero" transform="translate(277.572000, 459.940000) rotate(270.000000) translate(-277.572000, -459.940000) "></path>
    </g>
</svg>